<svg id="Layer_1" data-name="Layer 1" xmlns="http://www.w3.org/2000/svg" width="86mm" height="86mm" viewBox="0 0 243.78 243.78">
  <defs>
    <style>
      .cls-1 {
        fill: none;
        stroke: #e84b14;
        stroke-miterlimit: 10;
        stroke-width: 2px;
      }
    </style>
  </defs>
  <g>
    <path class="cls-1" d="M125.2,156.12a39.65,39.65,0,0,1-2.66,13.09,6,6,0,0,0-5.25,1.08c-.19.14-.38.29-.57.46l-.84.93c-.42-.47-.83-.92-1.24-1.39q-.28-.24-.57-.45a6.32,6.32,0,0,0-4.55-1.25,35.6,35.6,0,0,1-2.78-9.17c-2.08-13.71,6.67-24.69,9.23-27.7C118.85,135.16,125.5,144.08,125.2,156.12Z"/>
    <path class="cls-1" d="M164.59,163.66c-2.32,2.61-11.6,12.33-32.06,15.6-1.15.19-2.33.35-3.55.49l.75-.31.47-.2a10,10,0,0,0,.93-.46l.08-.05.75.31c13.38-2.63,19.6-8.46,21.25-10.12,19.49-19.5.92-56.27-4.64-67.27a114.83,114.83,0,0,0-23.38-31.17Q117,92,108.7,113.51L94.53,91.83C67.66,115.22,63.2,147,78.35,164.71c6.36,7.42,15.25,11.3,22.8,13.35l1.6.42-.19.08-1.09-.25c-10.64-2.54-24.85-8.15-34.53-20.81C47.18,131.65,53,85.22,88.06,51.06l18.47,31.67q10.75-31.44,21.52-62.86A167.35,167.35,0,0,1,158.54,65.4C165.79,81.47,190,135.17,164.59,163.66Z"/>
    <path class="cls-1" d="M125.2,156.12a39.65,39.65,0,0,1-2.66,13.09,6,6,0,0,0-5.25,1.08c-.19.14-.38.29-.57.46l-.84.93c-.42-.47-.83-.92-1.24-1.39q-.28-.24-.57-.45a6.32,6.32,0,0,0-4.55-1.25,35.6,35.6,0,0,1-2.78-9.17c-2.08-13.71,6.67-24.69,9.23-27.7C118.85,135.16,125.5,144.08,125.2,156.12Z"/>
    <path class="cls-1" d="M132,179c-.72.14-1.46.28-2.23.4l.47-.2a10,10,0,0,0,.93-.46l.08-.05Z"/>
    <path class="cls-1" d="M125.2,156.12a39.65,39.65,0,0,1-2.66,13.09,6,6,0,0,0-5.25,1.08c-.19.14-.38.29-.57.46l-.84.93c-.42-.47-.83-.92-1.24-1.39q-.28-.24-.57-.45a6.32,6.32,0,0,0-4.55-1.25,35.6,35.6,0,0,1-2.78-9.17c-2.08-13.71,6.67-24.69,9.23-27.7C118.85,135.16,125.5,144.08,125.2,156.12Z"/>
    <path class="cls-1" d="M109,179.38a3.58,3.58,0,0,1-.26.29s0,0,0,0l-1.21,1.35q-5.49,6.15-11,12.28L73.6,202.89c-3.71,1.55-7.73.4-9-2.57s.76-6.65,4.47-8.2l.35-.14,32.68-13.25.43-.17.19-.08,4.12-1.67.19.29a8.59,8.59,0,0,0,.59.76Z"/>
    <path class="cls-1" d="M153.21,168.92c-1.65,1.66-7.87,7.49-21.25,10.12l-.75-.31-.08.05a10,10,0,0,1-.93.46l-.47.2-.75.31-4.27,1.78-1.18-1.32-.06-.06-.69-.77.93-1.06a8.73,8.73,0,0,0,.59-.77,7.53,7.53,0,0,0,.73-1.33c1-2.27.68-4.73-1-6.16a1.39,1.39,0,0,0-.19-.15,3.71,3.71,0,0,0-1.35-.7,39.65,39.65,0,0,0,2.66-13.09c.3-12-6.35-21-9.23-24.4-2.56,3-11.31,14-9.23,27.7a35.6,35.6,0,0,0,2.78,9.17,4.25,4.25,0,0,0-1.74.64,3.75,3.75,0,0,0-.51.38c-1.87,1.65-2,4.68-.4,7.2l-4.12,1.67-1.6-.42c-7.55-2.05-16.44-5.93-22.8-13.35C63.2,147,67.66,115.22,94.53,91.83l14.17,21.68Q117,92,125.19,70.48a114.83,114.83,0,0,1,23.38,31.17C154.13,112.65,172.7,149.42,153.21,168.92Z"/>
    <path class="cls-1" d="M102.75,178.48l-.19.08-.43.17a7.39,7.39,0,0,1-.66-.42,3.92,3.92,0,0,1-.32-.25Z"/>
    <path class="cls-1" d="M168.71,200.32c-1.24,3-5.26,4.12-9,2.57l-25.41-10.62-9.62-10.74,4.27-1.78.75-.31.47-.2a10,10,0,0,0,.93-.46l.08-.05.75.31.57.22q15.67,6.38,31.36,12.72l.35.14C168,193.67,170,197.35,168.71,200.32Z"/>
    <path class="cls-1" d="M115.88,171.68c-.16.18-.33.36-.49.55l-.06.06c-.5.57-1,1.13-1.52,1.7l-.4.45c-1.48,1.65-3,3.3-4.43,4.94l-1.33-1.52a8.59,8.59,0,0,1-.59-.76l-.19-.29c-1.57-2.52-1.47-5.55.4-7.2a3.75,3.75,0,0,1,.51-.38,4.25,4.25,0,0,1,1.74-.64,6.32,6.32,0,0,1,4.55,1.25q.29.21.57.45C115.05,170.76,115.46,171.21,115.88,171.68Z"/>
    <path class="cls-1" d="M153.86,222.32c-2.26,2-6.09,1.29-8.56-1.52l-29.42-33.55,1.72-2,1.08-1.23,3.31-3.77,0,0,.76-.86.69.77.06.06,1.18,1.32,9.62,10.74q9.45,10.56,18.91,21.1c.07.08.15.18.23.26C155.94,216.45,156.11,220.34,153.86,222.32Z"/>
    <path class="cls-1" d="M125,176.22a7.53,7.53,0,0,1-.73,1.33,8.73,8.73,0,0,1-.59.77l-.93,1.06-.76.86,0,0-3.31,3.77-1.08,1.23-1.72,2-29.83,34c-2.46,2.81-6.3,3.5-8.55,1.52s-2.08-5.87.39-8.69l.23-.26q9.18-10.24,18.36-20.49,5.51-6.14,11-12.28l1.21-1.35s0,0,0,0a3.58,3.58,0,0,0,.26-.29c1.48-1.64,3-3.29,4.43-4.94l.4-.45c.51-.57,1-1.13,1.52-1.7l.06-.06c.16-.19.33-.37.49-.55l.84-.93c.19-.17.38-.32.57-.46a6,6,0,0,1,5.25-1.08,3.71,3.71,0,0,1,1.35.7,1.39,1.39,0,0,1,.19.15C125.71,171.49,126,174,125,176.22Z"/>
  </g>
</svg>
