<svg id="Layer_1" data-name="Layer 1" xmlns="http://www.w3.org/2000/svg" width="86mm" height="86mm" viewBox="0 0 243.78 243.78">
  <defs>
    <style>
      .cls-1 {
        fill: none;
        stroke: #fff;
        stroke-miterlimit: 10;
        stroke-width: 1.77px;
      }
    </style>
  </defs>
  <g>
    <path class="cls-1" d="M133.36,148A35,35,0,0,1,131,159.55a5.32,5.32,0,0,0-4.64,1,5.84,5.84,0,0,0-.5.4l-.74.82c-.37-.41-.74-.81-1.1-1.22a5.84,5.84,0,0,0-.5-.4,5.62,5.62,0,0,0-4-1.11,31.37,31.37,0,0,1-2.46-8.1c-1.84-12.11,5.89-21.81,8.16-24.46C127.75,129.47,133.62,137.35,133.36,148Z"/>
    <path class="cls-1" d="M168.15,154.65c-2.05,2.3-10.24,10.89-28.32,13.78-1,.17-2.05.31-3.13.43l.66-.27.42-.18a8.86,8.86,0,0,0,.82-.4l.07,0,.66.28c11.82-2.33,17.31-7.48,18.77-8.94,17.22-17.23.81-49.71-4.1-59.43a101.45,101.45,0,0,0-20.65-27.53q-7.27,19-14.57,38L106.27,91.2C82.53,111.86,78.59,139.94,92,155.58c5.62,6.55,13.48,10,20.14,11.79l1.42.37-.17.07-1-.22c-9.4-2.24-22-7.2-30.5-18.38-17.46-22.84-12.32-63.85,18.65-94q8.15,14,16.32,28,9.5-27.78,19-55.53a148,148,0,0,1,26.93,40.22C169.21,82.05,190.61,129.48,168.15,154.65Z"/>
    <path class="cls-1" d="M133.36,148A35,35,0,0,1,131,159.55a5.32,5.32,0,0,0-4.64,1,5.84,5.84,0,0,0-.5.4l-.74.82c-.37-.41-.74-.81-1.1-1.22a5.84,5.84,0,0,0-.5-.4,5.62,5.62,0,0,0-4-1.11,31.37,31.37,0,0,1-2.46-8.1c-1.84-12.11,5.89-21.81,8.16-24.46C127.75,129.47,133.62,137.35,133.36,148Z"/>
    <path class="cls-1" d="M139.33,168.24c-.64.12-1.29.24-2,.35l.42-.18a8.86,8.86,0,0,0,.82-.4l.07,0Z"/>
    <path class="cls-1" d="M133.36,148A35,35,0,0,1,131,159.55a5.32,5.32,0,0,0-4.64,1,5.84,5.84,0,0,0-.5.4l-.74.82c-.37-.41-.74-.81-1.1-1.22a5.84,5.84,0,0,0-.5-.4,5.62,5.62,0,0,0-4-1.11,31.37,31.37,0,0,1-2.46-8.1c-1.84-12.11,5.89-21.81,8.16-24.46C127.75,129.47,133.62,137.35,133.36,148Z"/>
    <path class="cls-1" d="M119,168.54l-.23.25s0,0,0,0L117.71,170,108,180.86,87.78,189.3c-3.28,1.37-6.83.36-7.93-2.27s.68-5.87,4-7.24l.31-.12L113,168l.38-.15.17-.07,3.64-1.47.16.25a6.78,6.78,0,0,0,.53.67Z"/>
    <path class="cls-1" d="M158.1,159.3c-1.46,1.46-6.95,6.61-18.77,8.94l-.66-.28-.07,0a8.86,8.86,0,0,1-.82.4l-.42.18-.66.27-3.77,1.57c-.36-.38-.7-.77-1.05-1.16l0-.05-.61-.68.82-.94a6.8,6.8,0,0,0,.52-.68,6.5,6.5,0,0,0,.65-1.18,4.67,4.67,0,0,0-.84-5.44l-.17-.13a3.39,3.39,0,0,0-1.19-.62A35,35,0,0,0,133.36,148c.26-10.64-5.61-18.52-8.15-21.55-2.27,2.65-10,12.35-8.16,24.46a31.37,31.37,0,0,0,2.46,8.1,3.77,3.77,0,0,0-1.54.57,3,3,0,0,0-.45.34c-1.65,1.45-1.74,4.13-.35,6.36l-3.64,1.47-1.42-.37c-6.66-1.81-14.52-5.24-20.14-11.79-13.38-15.64-9.44-43.72,14.3-64.38l12.51,19.15q7.29-19,14.57-38A101.45,101.45,0,0,1,154,99.87C158.91,109.59,175.32,142.07,158.1,159.3Z"/>
    <path class="cls-1" d="M113.53,167.74l-.17.07L113,168a5.72,5.72,0,0,1-.58-.37,3.15,3.15,0,0,1-.29-.22Z"/>
    <path class="cls-1" d="M171.79,187c-1.09,2.63-4.64,3.64-7.92,2.27l-22.45-9.38c-2.83-3.16-5.67-6.32-8.49-9.49l3.77-1.57.66-.27.42-.18a8.86,8.86,0,0,0,.82-.4l.07,0,.66.28.5.19,27.71,11.24.3.12C171.12,181.16,172.9,184.41,171.79,187Z"/>
    <path class="cls-1" d="M125.13,161.73c-.15.16-.3.32-.44.49l0,.05c-.44.51-.89,1-1.34,1.5l-.36.4q-1.95,2.19-3.91,4.37l-1.17-1.35a6.78,6.78,0,0,1-.53-.67l-.16-.25c-1.39-2.23-1.3-4.91.35-6.36a3,3,0,0,1,.45-.34,3.77,3.77,0,0,1,1.54-.57,5.62,5.62,0,0,1,4,1.11,5.84,5.84,0,0,1,.5.4C124.39,160.92,124.76,161.32,125.13,161.73Z"/>
    <path class="cls-1" d="M158.68,206.47c-2,1.74-5.38,1.14-7.57-1.35l-26-29.63,1.52-1.74.95-1.09,2.92-3.33,0,0,.67-.76.61.68,0,.05c.35.39.69.78,1.05,1.16,2.82,3.17,5.66,6.33,8.49,9.49q8.36,9.33,16.71,18.64c.06.07.13.16.2.23C160.51,201.28,160.66,204.72,158.68,206.47Z"/>
    <path class="cls-1" d="M133.21,165.74a6.5,6.5,0,0,1-.65,1.18,6.8,6.8,0,0,1-.52.68l-.82.94-.67.76,0,0-2.92,3.33-.95,1.09-1.52,1.74-26.35,30c-2.18,2.48-5.57,3.09-7.56,1.34s-1.83-5.18.35-7.67l.2-.23L108,180.86,117.71,170l1.06-1.19s0,0,0,0l.23-.25q2-2.17,3.91-4.37l.36-.4c.45-.5.9-1,1.34-1.5l0-.05c.14-.17.29-.33.44-.49l.74-.82a5.84,5.84,0,0,1,.5-.4,5.32,5.32,0,0,1,4.64-1,3.39,3.39,0,0,1,1.19.62l.17.13A4.67,4.67,0,0,1,133.21,165.74Z"/>
  </g>
</svg>
