<svg id="helt_1" data-name="helt 1" xmlns="http://www.w3.org/2000/svg" width="198.43mm" height="185.77mm" viewBox="0 0 562.47 526.59">
  <defs>
    <style>
      .cls-1 {
        fill: #1d1d1b;
        stroke: #fff;
      }

      .cls-1, .cls-10, .cls-2, .cls-3, .cls-5, .cls-7, .cls-8, .cls-9 {
        stroke-miterlimit: 10;
      }

      .cls-2 {
        fill: #e30b19;
      }

      .cls-2, .cls-3, .cls-5, .cls-7, .cls-8 {
        stroke: #1d1d1b;
      }

      .cls-3, .cls-4 {
        fill: #edcda4;
      }

      .cls-10, .cls-5, .cls-7, .cls-9 {
        fill: none;
      }

      .cls-6, .cls-8 {
        fill: #f39132;
      }

      .cls-10, .cls-7 {
        stroke-width: 2px;
      }

      .cls-10, .cls-9 {
        stroke: #f39132;
      }

      .cls-9 {
        stroke-width: 1.66px;
      }
    </style>
  </defs>
  <g>
    <path class="cls-1" d="M121,261.25c81.54,123.5,353.48,73.52,358.84,36.25,2.87-19.93-71.46-29.61-81.45-83.06-6.57-35.11,21.36-49.53,14.94-91.47C409,94.65,389,60.79,353.94,48.51c-35.95-12.62-68.21,3.9-74.44,7.24-11.64-6-46.51-22.14-87.13-11.89-56.68,14.3-86.46,70.35-93.39,113C98.36,160.67,90.22,214.61,121,261.25Z"/>
    <path class="cls-2" d="M357.54,306.12h0a21.57,21.57,0,0,1-.73,16.26C352,332.4,341,334,340.17,334.13c-1,.69-5.06,3.54-6.48,8.21a14.5,14.5,0,0,0-.62,4.19A14.31,14.31,0,0,0,340,358.79c-.18.32-.34.62-.49.9-1.86,3.46-4.46,8.29-7.83,13.69-7.18,11.52-17.85,25.68-32.27,34.72h0a57.09,57.09,0,0,1-28.11,9,56.38,56.38,0,0,1-29.16-6.89c-16-8.48-28.18-23.15-36-34.94h0a155.75,155.75,0,0,1-8-13.47h.12a14.37,14.37,0,0,0,8.11-26.23c-1.61-.38-13.73-3.47-19.68-15.75-5.76-11.9-1.16-23-.46-24.55a68,68,0,0,1,13.28-32.57c34.77-45.11,125.05-38,150.82,6C357.1,280.43,358.68,293.52,357.54,306.12Z"/>
    <path class="cls-3" d="M361.79,346.53a14.35,14.35,0,1,1-10.24-13.77A14.34,14.34,0,0,1,361.79,346.53Z"/>
    <path class="cls-2" d="M382.52,326.82c-.52,16.33-16,33.28-27.29,31.76a14.36,14.36,0,0,0-15.06-24.45,9.27,9.27,0,0,1,1.14-4.43c2.77-4.86,8.32-2.87,11.7-7.31,1.27-1.66.48-1.94,3.59-13,.39-1.39.72-2.53.94-3.28h0c1.37-6,.53-10,3.08-10.72C366.17,293.79,383.08,309.18,382.52,326.82Z"/>
    <path class="cls-2" d="M162.65,327.7c.52,16.33,16,33.29,27.29,31.76a14.36,14.36,0,0,1,3.68-25.81,14.47,14.47,0,0,1,4.13-.6,14.19,14.19,0,0,1,7.25,2,9.27,9.27,0,0,0-1.14-4.43c-2.77-4.86-8.31-2.87-11.69-7.31-1.27-1.67-.49-1.94-3.59-13-.39-1.38-.73-2.52-1-3.28h0c-1.36-6-.53-10-3.08-10.72C179,294.67,162.09,310.07,162.65,327.7Z"/>
    <path class="cls-3" d="M212.55,347.47a14.37,14.37,0,0,1-14.37,14.37h-.12a14.37,14.37,0,1,1,14.49-14.37Z"/>
    <path class="cls-4" d="M183,144.89c-.86,3.85-2.94,17.17,2.39,42.53,1.74,8.29,3.46,16.47,7.19,23.37,17.18,31.79,74.1,30.88,83.31,30.73,13.64-.22,60.83-1,78.84-30.44,5.44-8.89,8.08-20.16,9.18-24.86a111.39,111.39,0,0,0,1.79-40.73,25.17,25.17,0,0,0-1.95-7.32,24.54,24.54,0,0,0-1.64-2.87c-4.1-6-25.38-11.79-34.81-15a92.86,92.86,0,0,1-17.31-7.43,81.08,81.08,0,0,1-23.45-20.18,132.22,132.22,0,0,1-39.16,20.48c-28.68,9.14-50.77,5.63-61.05,20.89C184.88,136.2,184.24,139.1,183,144.89Z"/>
    <path class="cls-5" d="M277.3,176.73a5.85,5.85,0,0,1,2.84,4.54,5.58,5.58,0,0,1-2.84,5.13"/>
    <path class="cls-5" d="M267.41,176.74a5.9,5.9,0,0,0-2.84,4.54,5.6,5.6,0,0,0,2.84,5.13"/>
    <g id="maske">
      <ellipse class="cls-4" cx="373.65" cy="179.12" rx="11.48" ry="10.71"/>
      <ellipse class="cls-4" cx="177.82" cy="179.12" rx="11.48" ry="10.71"/>
      <path class="cls-6" d="M118.69,133.69h0A65.66,65.66,0,0,0,135,157.93c8.88,8.28,20,13.81,31.86,17.33A122.22,122.22,0,0,0,184.27,179h0l.78.11c1.38.2,2.78.37,4.17.53,32,3.55,63.9-3.19,71.65-7.17a27.11,27.11,0,0,1,13.79-3.43,26.71,26.71,0,0,1,13.43,4.51c8.14,5.13,43.12,12.23,76.59,5.85l.3-.06c.7-.13,1.39-.27,2.09-.42a106.64,106.64,0,0,0,20.92-6.6,74.73,74.73,0,0,0,25.43-17.84,70.37,70.37,0,0,0,16.66-33.58v0c-48.44-17.79-82.55-12.79-104.4-4.84-1.08.39-2.16.8-3.22,1.22h0l-.93.37c-29.29,11.59-28.73,19.21-45,19.71a39.15,39.15,0,0,1-10.06-.9c-11.17-2.59-16.94-8.45-31.28-14.81-3.06-1.35-6.68-2.8-10.83-4.16h0c-.57-.2-1.16-.4-1.76-.59-1-.32-2-.65-3-1-2.82-.87-13.86-3.55-15.37-3.84C197.28,110.79,162.87,116.43,118.69,133.69Z"/>
      <ellipse cx="342.21" cy="147.92" rx="10.57" ry="15"/>
      <ellipse cx="207.09" cy="147.92" rx="10.57" ry="15"/>
    </g>
    <line class="cls-7" x1="195.11" y1="133.76" x2="200.87" y2="138.86"/>
    <line class="cls-7" x1="199.42" y1="142.03" x2="193.09" y2="136.57"/>
    <line class="cls-7" x1="346.52" y1="137.5" x2="351.92" y2="132.98"/>
    <line class="cls-7" x1="349.09" y1="140.05" x2="354.51" y2="135.14"/>
    <path class="cls-3" d="M281.45,439.69a75.85,75.85,0,0,0,6.07,21.8c14.14,30.53,47,41,55.85,43.47-13-15.53-17.07-33-10.25-43.42a20.2,20.2,0,0,1,7.68-6.79s4-19.1,2-35.28c-1.35-11.08-3.59-27.59-16.66-38.17-1.53-1.25-15.49-12.26-27.69-7.54C280.31,380.77,278.12,417.9,281.45,439.69Z"/>
    <path class="cls-8" d="M287.3,461.25q5,18.15,10,36.3L357,507.61a58.23,58.23,0,0,1-16.51-30.25,57.07,57.07,0,0,1,.29-22.86l-19.64-24.92Z"/>
    <path class="cls-3" d="M254.79,439.25a75.85,75.85,0,0,1-6.07,21.8c-14.14,30.53-47,41-55.86,43.47,13-15.53,17.08-33,10.26-43.42a20.24,20.24,0,0,0-7.69-6.79s-4-19.1-2-35.28c1.34-11.08,3.59-27.59,16.66-38.17,1.53-1.25,15.49-12.26,27.69-7.54C255.92,380.33,258.11,417.46,254.79,439.25Z"/>
    <path class="cls-8" d="M248.93,460.81q-5,18.15-10,36.3l-59.69,10.06a58.16,58.16,0,0,0,16.5-30.25,56.7,56.7,0,0,0-.29-22.86l19.65-24.92Z"/>
  </g>
  <path class="cls-9" d="M276.49,312.13q-.67,9.31-1.14,18.28a29.26,29.26,0,0,0,2.76-37.15Q277.21,302.5,276.49,312.13Z"/>
  <path class="cls-10" d="M275.46,287.38a26.13,26.13,0,0,0-11.07,6A26.63,26.63,0,0,0,257,305.49c-.58,2-3.14,10.95,1.34,18.11a27.35,27.35,0,0,0,6.69,7c2.56,1.78,5.51,3.05,7.05,6.39a9.83,9.83,0,0,1,.73,2.25c1.72-1.37,13.84-11.31,14.18-28.15a37.46,37.46,0,0,0-9.2-24.91Z"/>
</svg>
