<svg xmlns="http://www.w3.org/2000/svg" width="32.01mm" height="32.02mm" viewBox="0 0 90.74 90.75">
  <g id="Layer_2" data-name="Layer 2">
    <g id="HEUP4t">
      <g>
        <path d="M46.94,90.72A45.38,45.38,0,1,1,90.52,40.79,45.33,45.33,0,0,1,46.94,90.72Zm-25.07-76a4.63,4.63,0,0,0-.06.88c.3,1.28.56,2.56.92,3.81a79.14,79.14,0,0,0,10.1,21.17,29.82,29.82,0,0,1,3.28,6.8c2.55,7.75-.6,15.49-7.67,18.81a4.29,4.29,0,0,0-1.92,1.06c7.64-.75,14-3.2,18.46-9.66,3,5.51,4.4,11,2.26,17.09A30.73,30.73,0,0,0,54,62.15a16.85,16.85,0,0,0-2.15-13.81c6.1.71,11.5-.91,16.72-3.38C47.61,43.38,31.05,35.08,21.87,14.7ZM45.34,35.1a9.88,9.88,0,0,0,9.93-9.87,9.9,9.9,0,0,0-19.79,0A9.82,9.82,0,0,0,45.34,35.1ZM73.68,64.36a4.81,4.81,0,0,0,3.92,4.32c.51.13,1,.15,1.16.78a.53.53,0,0,0,.66.39.55.55,0,0,0,.48-.71c-.23-.6.12-.81.5-1.12,1.38-1.15,2.22-2.61,1.72-4.41a4.41,4.41,0,0,0-3.8-3.09c-.65-.12-1.28-.09-1.5-.92a.52.52,0,0,0-.67-.35c-.22.06-.52.29-.42.48.51,1.06-.47,1.33-.94,1.86A3.73,3.73,0,0,0,73.68,64.36ZM12.9,54.6a19.72,19.72,0,0,1-.5-2.44,2.08,2.08,0,0,0-1.56-1.91c-1.78-.7-3.53-1.46-5.3-2.2-.66-.28-1.35-.41-1.7.33s.24,1.18.85,1.52a1.53,1.53,0,0,1,.22,2.8,1.05,1.05,0,0,0-.54,1.06c.17,1,.36,1.93.62,2.87a.86.86,0,0,0,1.11.61.79.79,0,0,0,.62-1,10.22,10.22,0,0,0-.22-1.23c-.1-.42-.07-.74.43-.85s.83,0,.93.53c0,.23.1.46.16.69.14.58.37,1.11,1.11,1s.66-.76.66-1.34-.65-1.16.29-1.38.69.74,1,1.18a.88.88,0,0,1,.06.27.9.9,0,0,0,1.16.73C12.83,55.71,13,55.29,12.9,54.6ZM64.78,77.29l4.63,1.45a1.37,1.37,0,0,0,1.66-.31c.49-.65,0-1.15-.32-1.63-1.1-1.52-2.2-3-3.32-4.52A1,1,0,0,0,66,72c-.6.42-.48,1-.12,1.47.54.8,1.09,1.59,1.88,2.74-1.78-.6-3.17-1.08-4.58-1.53-.5-.16-1-.27-1.43.21a1.19,1.19,0,0,0,.05,1.44q1.48,2.46,3,4.9c.34.56.78,1,1.49.5s.64-1.05.22-1.69C66,79.18,65.45,78.35,64.78,77.29ZM13,67.13a1.27,1.27,0,0,1-1.66-.61,1.5,1.5,0,0,1-.06-1.83,2.79,2.79,0,0,1,2.85-1.41c1.16.19,1.55,1.06,1.5,2.18,0,.61.17,1.18.85,1.23s1-.51,1.09-1.09a2.72,2.72,0,0,0,0-1.1,3.92,3.92,0,0,0-3-3.22A4.55,4.55,0,0,0,10,62.78,3.77,3.77,0,0,0,10,68a3.55,3.55,0,0,0,4.68.73c.82-.51,1.1-1.12.54-2-.28-.43-.54-.87-.82-1.31A.93.93,0,0,0,13.05,65a.88.88,0,0,0-.35,1.31C12.82,66.58,13.07,66.79,13,67.13ZM51.62,86.82c2.53,0,4.21-1.52,4.23-3.85,0-2.66-1.69-4.67-4-4.7a3.88,3.88,0,0,0-4,4.09C47.82,85,49.35,86.8,51.62,86.82Zm-11.21-5.4a3.55,3.55,0,0,0-1.36-2.55,8.43,8.43,0,0,0-3.12-1.17,1.18,1.18,0,0,0-1.67,1c-.41,1.57-.87,3.14-1.3,4.71s-.39,1.85,1.32,2.35c.36.11.72.19,1.09.27C38.22,86.62,40.37,84.9,40.41,81.42ZM59,81.84c1.16.64,2,1.14,3,1.62A1,1,0,0,0,63.36,83c.35-.61,0-1.08-.53-1.39-.33-.17-.67-.32-1-.46-.6-.24-.92-.47-.35-1.17a1.94,1.94,0,0,0,0-2.24c-1-1.81-4.5-1.9-5.69-.13a1,1,0,0,0-.11.93c.68,1.94,1.34,3.88,2,5.81A.92.92,0,0,0,59,85a1,1,0,0,0,.56-1.39C59.44,83.12,59.27,82.65,59,81.84ZM82,58.33c1.08-.4,1.87-.66,2.64-1s1.51-.64,1.14-1.58-1.18-.64-1.88-.31l-.37.19c-.6.33-1,.48-1.3-.45a2.24,2.24,0,0,0-2.45-1.46c-1.57,0-3.49,2.92-2.94,4.41a1.15,1.15,0,0,0,.52.62c2,.75,3.92,1.47,5.89,2.17a.89.89,0,0,0,1.24-.57A1,1,0,0,0,83.84,59ZM24.5,81.16A2.6,2.6,0,0,0,27,79.81c.79-1.2,1.5-2.46,2.26-3.69A1,1,0,0,0,29,74.66c-.59-.36-1.07-.06-1.4.47-.66,1-1.28,2.06-1.95,3.08-.56.85-1.32,1.21-2.24.57s-.79-1.4-.23-2.19l2.07-3c.36-.52.46-1.07-.11-1.48a1,1,0,0,0-1.46.33c-.74,1-1.45,2-2.21,3.06A3,3,0,0,0,21,79,4,4,0,0,0,24.5,81.16Zm19,2.76c.81,1,1.49,1.79,2.2,2.59.52.59,1.15,1.15,1.91.51s.07-1.32-.38-1.88c-.6-.71-1.57-1.33-1.74-2.13-.22-1,1.11-1.41,1.66-2.18.38-.54.73-1,.08-1.56s-1.11-.26-1.57.24l-2.13,2.24V79.81a.84.84,0,0,0-.88-.9.83.83,0,0,0-1,.79c-.18,2.14-.36,4.28-.49,6.42a.93.93,0,0,0,.95,1,1,1,0,0,0,1.12-1A6.88,6.88,0,0,1,43.48,83.92Zm35-33.82a2.65,2.65,0,0,0,2.08,3c1.39.41,2.09-.37,2.65-1.45.17-.33.32-.67.51-1s.41-.57.78-.44a.68.68,0,0,1,.4.93,11.39,11.39,0,0,1-.6,1.56.86.86,0,0,0,.31,1.11.81.81,0,0,0,1.14.11,4.1,4.1,0,0,0,1.2-3.72,2.41,2.41,0,0,0-2-2.23c-1.39-.33-2.25.21-3.24,2-.2.38-.3,1.07-.89.87s-.31-.79-.15-1.21c.25-.65.51-1.35-.32-1.68s-1.29.32-1.57,1A7.25,7.25,0,0,0,78.47,50.1ZM6.84,44.79c1.57-.52,2.81-.91,4-1.34.65-.23,1.28-.55,1-1.41s-.9-.74-1.53-.53q-2.93,1-5.84,2a1.3,1.3,0,0,0-1,1.24,1.19,1.19,0,0,0,.85,1.17c1.94.81,3.89,1.59,5.85,2.36.6.23,1.26.28,1.54-.47s-.19-1.13-.83-1.38ZM69.61,13.62a3.11,3.11,0,0,0-.36,1.89,11.14,11.14,0,0,1-1.33,5.75c-1,1.64-.28,4.14,1.19,5.48.35.31.55.37.93.05,1.58-1.3,2.35-3.95,1.18-5.7s-1-3.8-1.3-5.73C69.83,14.82,70,14.24,69.61,13.62Zm6.75,59.6a1.21,1.21,0,0,0-.6-1c-1-.73-1.65-1.45-.34-2.53a.77.77,0,0,0-.12-1.22.84.84,0,0,0-1.25,0,7.5,7.5,0,0,0-.67.71c-.31.38-.58.35-.93,0s-.26-.53,0-.82.41-.5.62-.76c.37-.45.49-.92,0-1.35a.93.93,0,0,0-1.46.18c-.52.59-1,1.2-1.54,1.8a.91.91,0,0,0,0,1.37c1.55,1.48,3.09,3,4.7,4.37A1,1,0,0,0,76.36,73.22ZM20.5,70.86c.58.51.95.85,1.34,1.18s.87.55,1.35,0a.9.9,0,0,0-.07-1.45c-.51-.49-1-1-1.53-1.46a1.15,1.15,0,0,0-1.91,0c-1.29,1.29-2.61,2.54-3.92,3.82-.49.48-.95,1-.34,1.67s1.29.39,1.79-.2c.77-.91,1.46-1.56,2.46-.22.34.45.92.38,1.34-.1a.84.84,0,0,0-.08-1.25c-.21-.24-.48-.44-.7-.68s-.39-.3-.2-.59S20.33,71.15,20.5,70.86ZM76,32.08c.07-1.28-.22-1.48-1.43-1a8.61,8.61,0,0,0-3,2A5.18,5.18,0,0,0,70.06,37c0,.53.1.87.82.72A6.73,6.73,0,0,0,76,32.08Zm0,5.78c.08-1.3-.2-1.5-1.42-1a10.44,10.44,0,0,0-2.63,1.56,5.24,5.24,0,0,0-1.86,4.32c0,.59.18.84.84.71A6.58,6.58,0,0,0,76,37.86Zm0-11.59c0-1.19-.27-1.42-1.4-1a8.35,8.35,0,0,0-3.13,2,5.2,5.2,0,0,0-1.38,3.83c0,.55.16.87.84.73A6.61,6.61,0,0,0,76,26.27ZM69.09,42.19A6.55,6.55,0,0,0,64,36.61c-.68-.09-.64.32-.68.75-.23,2.49,1.31,4.55,4.35,5.84C69,43.77,69.13,43.68,69.09,42.19Zm0-11.61a6.51,6.51,0,0,0-5-5.49c-.68-.1-.77.22-.81.77-.19,2.41,1.28,4.41,4.26,5.73C69,32.22,69.14,32.1,69.1,30.58Zm0,6.16c0-2.61-1.69-4.63-4.66-5.73-.86-.32-1.16-.17-1.18.78-.06,2.46,1.57,4.53,4.55,5.73C68.8,37.92,69.24,37.74,69.11,36.74Zm14.75,9v0H86c.67,0,1.27-.2,1.28-1s-.55-1.12-1.3-1.11c-1.26,0-2.53,0-3.79,0-.78,0-1.36,0-1.39-1a.8.8,0,0,0-1-.78.88.88,0,0,0-.85.94c0,1.26,0,2.52.09,3.78a.86.86,0,0,0,.92.86c.48,0,.89-.21.87-.7,0-1.07.6-1.07,1.36-1C82.74,45.73,83.3,45.71,83.86,45.71ZM12.48,56.6c-1.78.69-3.88,1.48-5.94,2.34a.83.83,0,0,0-.35,1.11c.4,1,.82,2,1.28,3a.81.81,0,0,0,1.2.35.9.9,0,0,0,.46-1.19,5.3,5.3,0,0,0-.34-.77c-.45-.73-.3-1.12.55-1.41,1.32-.45,2.61-1,3.9-1.57.51-.22.88-.58.68-1.2S13.35,56.49,12.48,56.6ZM32.16,83.82c0-.85-.73-1-1.34-1.23-.84-.27-1.07-.68-.63-1.53.59-1.16,1-2.39,1.57-3.58.29-.64.33-1.21-.37-1.54s-1.14.1-1.42.72c-.8,1.73-1.57,3.47-2.39,5.2a1.07,1.07,0,0,0,.52,1.62c.88.42,1.8.77,2.71,1.12C31.55,84.87,32,84.51,32.16,83.82ZM63.3,12l-.24,0a3.42,3.42,0,0,0,0,.64c.81,3.86,1.64,7.73,2.46,11.59.15.68.61,1,1.48,1.09C65.75,20.78,64.52,16.38,63.3,12Zm8.87,13.46c1.49-.69,2.92-5.11,2.5-7.2C73.82,20.66,73.05,22.91,72.17,25.44Z"/>
        <path d="M41.12,24.82c2.7,4.32,6.54,5.64,11.34,5.16a8.21,8.21,0,0,1-4.2,2.93A4.18,4.18,0,0,1,43.52,31,16.81,16.81,0,0,1,41.12,24.82Z"/>
        <path d="M77.87,62.53c2.53,1.17,2.88,2.33,1.39,3.82A31,31,0,0,1,77.87,62.53Z"/>
        <path d="M77.8,66.35c-1.89-.74-2.59-1.9-1.93-3,.14-.24.29-.53.61-.5s.28.32.35.54C77.15,64.32,77.46,65.29,77.8,66.35Z"/>
        <path d="M9.7,52c-.59.05-1.18.13-1.77.14s-.63-.51-.59-.89c.08-.58.51-.21.75-.14.57.16,1.12.4,1.68.61Z"/>
        <path d="M51.77,80.25c1.12,0,2,1.32,1.95,2.8a1.83,1.83,0,0,1-1.85,1.86c-1.14,0-1.93-1.13-1.9-2.64C50,81,50.68,80.21,51.77,80.25Z"/>
        <path d="M38.27,81.57c0,1.84-1,2.85-2.52,2.57-.62-.12-.78-.41-.63-1a12,12,0,0,1,.53-1.89c.23-.5-.18-1.53.89-1.41A1.79,1.79,0,0,1,38.27,81.57Z"/>
        <path d="M59.77,79.05c-.08.65-.61.83-1.1.91-.7.11-.69-.6-.73-1-.07-.63.6-.58,1-.67S59.69,78.59,59.77,79.05Z"/>
        <path d="M79,56.94c.2-.58.28-1.15,1-1.12.49,0,.82.33.7.82s0,1.07-.71,1C79.59,57.53,79,57.54,79,56.94Z"/>
      </g>
    </g>
  </g>
</svg>
