<svg id="Layer_1" data-name="Layer 1" xmlns="http://www.w3.org/2000/svg" width="86mm" height="86mm" viewBox="0 0 243.78 243.78">
  <defs>
    <style>
      .cls-1 {
        fill: none;
        stroke: #e84b14;
        stroke-miterlimit: 10;
        stroke-width: 2px;
      }
    </style>
  </defs>
  <g>
    <rect class="cls-1" x="12.61" y="66.29" width="75.66" height="49.77"/>
    <rect class="cls-1" x="12.61" y="116.06" width="75.66" height="70.77"/>
    <path class="cls-1" d="M88.26,164.16H98V120.74h-9.7Z"/>
    <circle class="cls-1" cx="51.3" cy="152.81" r="22.33"/>
    <circle class="cls-1" cx="51.67" cy="153.32" r="14.65"/>
    <rect class="cls-1" x="66.32" y="186.83" width="21.94" height="32.66"/>
    <rect class="cls-1" x="12.61" y="186.83" width="24.41" height="32.66"/>
    <path class="cls-1" d="M50,15.68,3.28,66.29h93.1Z"/>
    <rect class="cls-1" x="88.26" y="73.19" width="152.79" height="7.46"/>
    <rect class="cls-1" x="202.78" y="80.65" width="6.48" height="138.84"/>
    <rect class="cls-1" x="234.58" y="80.65" width="6.48" height="138.84"/>
    <rect class="cls-1" x="209.26" y="95.25" width="25.33" height="5.51"/>
    <path class="cls-1" d="M110.28,80.65v22.13a3.35,3.35,0,0,1-3.16,1.46,3.44,3.44,0,0,1-2.36-1.53V80.65Z"/>
    <path class="cls-1" d="M146,80.65v22.13a3.35,3.35,0,0,1-3.16,1.46,3.44,3.44,0,0,1-2.36-1.53V80.65Z"/>
    <path class="cls-1" d="M182.13,80.65v22.13a3.35,3.35,0,0,1-3.16,1.46,3.44,3.44,0,0,1-2.36-1.53V80.65Z"/>
    <rect class="cls-1" x="209.26" y="115.36" width="25.33" height="5.51" transform="translate(443.84 236.23) rotate(180)"/>
    <rect class="cls-1" x="209.26" y="133.67" width="25.33" height="5.51" transform="translate(443.84 272.85) rotate(180)"/>
    <rect class="cls-1" x="209.26" y="152.65" width="25.33" height="5.51" transform="translate(443.84 310.81) rotate(180)"/>
    <rect class="cls-1" x="209.26" y="171.63" width="25.33" height="5.51" transform="translate(443.84 348.77) rotate(180)"/>
    <rect class="cls-1" x="209.26" y="190.61" width="25.33" height="5.51" transform="translate(443.84 386.73) rotate(180)"/>
    <path class="cls-1" d="M197.78,219.74a2.78,2.78,0,0,1-.55.37c-6.8-.12-16.21-.38-28.06-1l-1.14-.06c-21.51-1.53-28.7-40.58-60.51-58.17A66.09,66.09,0,0,0,98,156.57V142.2c13.58,1.75,22.3,6.42,27.58,10.1,8.19,5.71,16.84,16.89,33.8,39,6.72,8.77,10,13.36,16,14.37,7.05,1.17,14.7-3,19.73,1.34a9,9,0,0,1,2.12,2.81C197.62,210.79,200.34,217.5,197.78,219.74Z"/>
    <path class="cls-1" d="M110.28,95.54v6.19a6.85,6.85,0,1,1-5.52,0V95.54a12.74,12.74,0,1,0,5.52,0Z"/>
    <path class="cls-1" d="M146,95.54v6.19a6.84,6.84,0,1,1-5.52,0V95.54a12.75,12.75,0,1,0,5.52,0Z"/>
    <path class="cls-1" d="M182.13,95.6v6.25a6.84,6.84,0,1,1-5.52-.23V95.49a12.74,12.74,0,1,0,5.52.11Z"/>
    <path class="cls-1" d="M39,89.77a11.69,11.69,0,0,1,22.81,0v25.82H39Z"/>
  </g>
</svg>
