<svg id="helt_1" data-name="helt 1" xmlns="http://www.w3.org/2000/svg" width="198.43mm" height="185.77mm" viewBox="0 0 562.47 526.59">
  <defs>
    <style>
      .cls-1 {
        fill: #e6007e;
      }

      .cls-1, .cls-6 {
        stroke: #1d1d1b;
        stroke-miterlimit: 10;
      }

      .cls-2 {
        fill: #fecf66;
      }

      .cls-3 {
        fill: #edcda4;
      }

      .cls-4 {
        fill: #1d1d1b;
        isolation: isolate;
      }

      .cls-5 {
        fill: #f7d6b2;
      }

      .cls-6 {
        fill: none;
      }

      .cls-7 {
        fill: #5db136;
      }

      .cls-8 {
        fill: #fff;
      }
    </style>
  </defs>
  <g>
    <path class="cls-1" d="M534.06,386.62a56.41,56.41,0,0,0-57.79,45.29c-2.27-.44-20.86-3.77-35.92,9.37-12.25,10.7-13.79,25-14.06,28.12a41.73,41.73,0,0,0-28.11,4.68c-17.91,10.41-20.11,30.7-20.3,32.8q-18.6-33.06-38.33-66.54c-43.3-73.4-87.53-142.63-132-207.81l86-2.1A222.36,222.36,0,0,1,369.86,264c27.31,19,38,36.16,58.5,56.41C449.22,341.05,482.15,366.75,534.06,386.62Z"/>
    <path class="cls-2" d="M141,173.25c38.15,61.47,166.5,73.69,215.8,14.23,20.38-24.57,21.95-57.7,23.66-89.16,2.28-42-8.89-58.48-13.55-64.44A66.79,66.79,0,0,0,347,17,239.89,239.89,0,0,0,200,43.54H150.4a120.21,120.21,0,0,0-24.16,64.26C126.12,109.6,124.08,146.08,141,173.25Z"/>
    <path class="cls-1" d="M338.52,297.1h0a21.65,21.65,0,0,1-.74,16.26C333,323.38,322,325,321.15,325.11c-1,.7-5.07,3.54-6.49,8.21a14.5,14.5,0,0,0-.62,4.19,14.34,14.34,0,0,0,6.89,12.26c-.18.32-.33.62-.49.9-1.86,3.46-4.46,8.29-7.82,13.69-7.19,11.53-17.85,25.68-32.28,34.72h0a57.06,57.06,0,0,1-28.11,9.05,56.48,56.48,0,0,1-29.16-6.88c-16-8.48-28.18-23.16-36-34.95h0a150.71,150.71,0,0,1-8-13.47h.12a14.36,14.36,0,0,0,8.1-26.22c-1.6-.39-13.72-3.48-19.67-15.76-5.77-11.89-1.16-23-.47-24.55a68.25,68.25,0,0,1,13.28-32.57c34.77-45.1,125-38,150.82,6C338.08,271.41,339.65,284.5,338.52,297.1Z"/>
    <path class="cls-3" d="M342.76,337.51a14.37,14.37,0,1,1-14.36-14.36,14.13,14.13,0,0,1,4.13.6A14.36,14.36,0,0,1,342.76,337.51Z"/>
    <path class="cls-4" d="M363.5,317.8c-.53,16.33-16,33.29-27.29,31.76a14.36,14.36,0,0,0-3.68-25.81,14.43,14.43,0,0,0-11.38,1.36,9.2,9.2,0,0,1,1.14-4.43c2.76-4.86,8.31-2.87,11.69-7.31,1.27-1.66.49-1.93,3.59-13,.39-1.39.72-2.53.95-3.28h0c1.36-6,.53-10,3.08-10.72C347.14,284.77,364.05,300.16,363.5,317.8Z"/>
    <path class="cls-4" d="M143.62,318.69c.53,16.33,16,33.28,27.29,31.76A14.36,14.36,0,0,1,178.72,324a14.14,14.14,0,0,1,7.25,2,9.15,9.15,0,0,0-1.14-4.43c-2.76-4.86-8.31-2.87-11.69-7.31-1.27-1.66-.48-1.94-3.59-13-.39-1.39-.72-2.53-1-3.28h0c-1.36-6-.53-10-3.08-10.72C160,285.66,143.07,301.05,143.62,318.69Z"/>
    <path class="cls-3" d="M193.52,338.45a14.36,14.36,0,0,1-14.36,14.37H179a14.36,14.36,0,1,1,14.48-14.37Z"/>
    <path class="cls-3" d="M198.64,138.9c0,8.29-4.74,15-10.57,15s-10.57-6.71-10.57-15,4.73-15,10.57-15S198.64,130.62,198.64,138.9Z"/>
    <path class="cls-3" d="M333.75,138.9c0,8.29-4.73,15-10.57,15s-10.56-6.71-10.56-15,4.73-15,10.56-15S333.75,130.62,333.75,138.9Z"/>
    <g id="maske">
      <path class="cls-5" d="M366.1,170.11c0,5.91-5.14,10.7-11.48,10.7a11.71,11.71,0,0,1-9.52-4.72c-.1.38-.18.75-.27,1.12-1.1,4.7-3.74,16-9.17,24.85-18,29.46-65.21,30.22-78.85,30.44-9.21.15-66.12,1.07-83.31-30.73-3.72-6.9-5.44-15.07-7.19-23.36,0-.06,0-.12,0-.18a11.92,11.92,0,0,1-7.47,2.58c-6.34,0-11.48-4.79-11.48-10.7a10,10,0,0,1,.74-3.79,11.47,11.47,0,0,1,10.74-6.92,12,12,0,0,1,4.63.91c-1.4-13.79-.14-21.61.49-24.43a69.81,69.81,0,0,1,3.34-10.79l20.09-21.57,26.8-28.77,86.56,34.61L343,126.29a64,64,0,0,1,3.59,10.18A65,65,0,0,1,348,161.39a12,12,0,0,1,6.66-2,11.62,11.62,0,0,1,10.13,5.66A10.11,10.11,0,0,1,366.1,170.11Z"/>
    </g>
    <path class="cls-6" d="M258.28,167.71a5.93,5.93,0,0,1,2.84,4.54,5.59,5.59,0,0,1-2.84,5.13"/>
    <path class="cls-6" d="M248.39,167.72a5.88,5.88,0,0,0-2.85,4.54,5.6,5.6,0,0,0,2.85,5.13"/>
    <path class="cls-4" d="M262.42,430.68a75.79,75.79,0,0,0,6.07,21.79c14.14,30.53,47,41,55.86,43.47-13-15.53-17.07-33-10.26-43.42a20.33,20.33,0,0,1,7.69-6.79s4-19.1,2-35.28c-1.34-11.08-3.59-27.59-16.66-38.17-1.53-1.24-15.49-12.25-27.69-7.53C261.29,371.76,259.1,408.88,262.42,430.68Z"/>
    <path class="cls-7" d="M268.28,452.23q5,18.15,10,36.3L338,498.6a58.25,58.25,0,0,1-16.5-30.26,56.83,56.83,0,0,1,.29-22.85l-19.65-24.93Z"/>
    <path class="cls-4" d="M235.76,430.24A75.47,75.47,0,0,1,229.69,452c-14.14,30.53-47,41-55.85,43.47,13-15.53,17.07-33,10.25-43.42a20.28,20.28,0,0,0-7.68-6.79s-4-19.1-2-35.28c1.35-11.08,3.6-27.59,16.66-38.17,1.53-1.24,15.49-12.25,27.69-7.53C236.9,371.32,239.09,408.44,235.76,430.24Z"/>
    <path class="cls-7" d="M229.91,451.79q-5,18.15-10,36.3l-59.69,10.07a58.31,58.31,0,0,0,16.51-30.26,56.83,56.83,0,0,0-.29-22.85l19.64-24.93Z"/>
    <path class="cls-7" d="M291.77,291.8c-5.8,6.91-13.06,12.77-21.38,12.69-14.35-.15-20.81-17.83-34.64-17.49-5.57.14-12.37,3.21-20,13.37v-10.2c4.07-4.53,10.73-10.46,19.23-10.77,15.48-.57,23.32,18,37.61,16.81,4.65-.39,11.48-3,19.21-14.41Z"/>
    <path class="cls-7" d="M291.77,308.86c-5.8,6.91-13.06,12.77-21.38,12.68-14.35-.14-20.81-17.82-34.64-17.48-5.57.14-12.37,3.2-20,13.37V307.22c4.07-4.53,10.73-10.45,19.23-10.76,15.48-.57,23.32,18,37.61,16.8,4.65-.38,11.48-3,19.21-14.4Z"/>
    <g id="maske-2" data-name="maske">
      <path class="cls-7" d="M410.64,128.47A137.72,137.72,0,0,1,379,153.79a143.15,143.15,0,0,1-29.41,12.77l-1.64.5q-3.36,1-6.71,1.84c-3,.75-5.94,1.4-8.87,2l-2.57.47c-30.47,5.35-57.09,1.32-65.52-3.32a21.75,21.75,0,0,0-24.8,1.07c-9.13,6.16-36.17,7.09-68-1-2.45-.63-4.94-1.31-7.45-2h0l-1.3-.38q-3.43-1-6.92-2.22h0a214.4,214.4,0,0,1-30.55-13c-2.63-1.37-5.7-3-9.09-5a209.78,209.78,0,0,1-20.64-13.83,99.93,99.93,0,0,1,20.64-17.66,80.35,80.35,0,0,1,22.36-10c1.81-.47,3.38-.82,4.67-1.07s2.39-.44,3.57-.61,2.07-.28,3.09-.38a89.47,89.47,0,0,1,29.69,2.22c11.57,2.72,21.68,7,29.45,10.31a124.77,124.77,0,0,1,22.19,12c2,1.34,3.78,2.52,5.53,3.52A26.13,26.13,0,0,0,250,133.69a31.3,31.3,0,0,0,16-3.46c2-1,4-2.16,6.21-3.46,6.72-4,15-9.17,29.68-14,4.38-1.45,8.81-3,13.33-4.5,11.94-4,24.52-7.33,38.59-6.39l.14,0c.9,0,1.92.14,3,.26a78.81,78.81,0,0,1,13.65,2.78c10.56,3.13,24,9.41,38.34,22.09C409.57,127.49,410.1,128,410.64,128.47Z"/>
      <ellipse class="cls-8" cx="190.15" cy="143.32" rx="9.63" ry="14.65"/>
      <ellipse class="cls-8" cx="313.28" cy="143.32" rx="9.63" ry="14.65"/>
    </g>
  </g>
</svg>
