<svg xmlns="http://www.w3.org/2000/svg" width="415mm" height="415mm" viewBox="0 0 1176.38 1176.38">
  <defs>
    <style>
      .cls-1 {
        fill: #fff;
        opacity: 0.11;
      }

      .cls-2, .cls-9 {
        fill: #5ac0cc;
      }

      .cls-3 {
        fill: #dcb650;
      }

      .cls-4 {
        fill: #9ad4de;
      }

      .cls-10, .cls-11, .cls-12, .cls-5 {
        fill: none;
      }

      .cls-11, .cls-12, .cls-5, .cls-8, .cls-9 {
        stroke: #1d1d1b;
      }

      .cls-10, .cls-11, .cls-12, .cls-5, .cls-8, .cls-9 {
        stroke-miterlimit: 10;
      }

      .cls-6 {
        fill: #edcda4;
      }

      .cls-7 {
        fill: #ffed00;
      }

      .cls-8 {
        fill: #27b8cd;
      }

      .cls-10 {
        stroke: #ffed00;
        stroke-width: 2.48px;
      }

      .cls-11 {
        stroke-width: 2px;
      }

      .cls-12 {
        stroke-width: 2.06px;
      }

      .cls-13 {
        fill: #5bc0cc;
      }
    </style>
  </defs>
  <g id="Layer_2" data-name="Layer 2">
    <g>
      <g>
        <path class="cls-1" d="M666,423.48q.39-98.55.26-197.11c0-4.08-5.74,1.91-5.81,2q-3.51,3.71-6.68,7.71a9.26,9.26,0,0,0-2.67,4.69V379.22q.29,14.68-.29,29.35-.37,14-1,27.93c-.15,4,5.69-1.27,5.93-1.48q3.78-3.37,7.24-7.09A9.21,9.21,0,0,0,666,423.48Z"/>
        <path class="cls-1" d="M668.71,415.33c.07-32.79.22-65.58.22-98.38q0-49.44,0-98.9c0-4.3-6.39,2-6.62,2.22q-4.44,4.09-8.55,8.5a12.67,12.67,0,0,0-3.7,5.16v98.9q0,19.79,0,39.57.28,14.6-.42,29.18-.51,13.83-1,27.65c-.16,4.17,6.25-1.18,6.76-1.55q4.75-3.62,9.23-7.59A12.35,12.35,0,0,0,668.71,415.33Z"/>
        <path class="cls-1" d="M670.64,422.19c.09-32.78.24-65.56.24-98.35V225c0-4.67-6.84,3.63-6.55,3.3q-4.16,4.89-8,10.06a14,14,0,0,0-3.3,5.88v98.9q0,19.79,0,39.56.28,14.66-.44,29.27-.52,13.95-1.14,27.9c-.2,4.57,6.91-2.89,6.76-2.74,3-3,5.88-6.11,8.65-9.33A13.79,13.79,0,0,0,670.64,422.19Z"/>
        <path class="cls-1" d="M679.06,425.91c-.19-32.68,0-65.35,0-98V229a1.89,1.89,0,0,0-3-1.66,15.62,15.62,0,0,0-2.51,3.62,15.37,15.37,0,0,0-1.69,4.06c0,65.4.28,130.82-.26,196.22a1.91,1.91,0,0,0,2.9,1.88,20.11,20.11,0,0,0,4.64-7.19Z"/>
        <path class="cls-1" d="M677.42,421.15c.51-65.8.29-131.61.29-197.41a1.21,1.21,0,0,0-1.72-1.09,8.83,8.83,0,0,0-3.65,3.78q-2.85,4.08-5.31,8.38a8.81,8.81,0,0,0-1.86,4.92v98.9q0,19.77,0,39.56.24,14.7-.31,29.41-.35,14.07-1.06,28.15a1.22,1.22,0,0,0,1.62,1.23,8.62,8.62,0,0,0,3.9-3.4q3.12-3.74,5.89-7.76A8.48,8.48,0,0,0,677.42,421.15Z"/>
        <path class="cls-1" d="M665.55,411c-.35-32.72-.15-65.44-.15-98.16q0-49.46,0-98.9a2.12,2.12,0,0,0-1.29-1.58,2.67,2.67,0,0,0-2.55.72c-1.67,1-4.83,3.08-4.83,5.31,0,65.32.24,130.64-.24,196a2.12,2.12,0,0,0,1.09,1.72,2.62,2.62,0,0,0,2.6-.4,23.44,23.44,0,0,0,3.9-2.49A2.6,2.6,0,0,0,665.55,411Z"/>
        <path class="cls-1" d="M662.44,420.56l.79-19.66q.16-14.77.12-29.54,0-24.72,0-49.45V223a1.51,1.51,0,0,0-1.44-1.43,4.75,4.75,0,0,0-3.28,1.8,51.61,51.61,0,0,0-4.89,4.92,4.75,4.75,0,0,0-1.78,3.29q0,49.46,0,98.9,0,19.78,0,39.56.18,14.73-.14,29.46A199.6,199.6,0,0,1,650,428.19a1.5,1.5,0,0,0,1.3,1.57,5,5,0,0,0,3.51-1.53,53.8,53.8,0,0,0,5.48-4.51A4.91,4.91,0,0,0,662.44,420.56Z"/>
        <path class="cls-1" d="M672.11,426.73c-.8-32.51-.39-65.06-.39-97.59v-98.9a2.13,2.13,0,0,0-2.86-2,9.08,9.08,0,0,0-2.26,2.48,9.26,9.26,0,0,0-1.51,3v98.9c0,32.32-.29,64.65.22,97a2.16,2.16,0,0,0,2.69,2.18,12,12,0,0,0,4.11-5.09Z"/>
        <path class="cls-1" d="M676,413.28c.37-65.81.24-131.62.25-197.43,0-1-.55-1.46-1.56-1.31a9.37,9.37,0,0,0-4.23,3.41q-3.45,3.78-6.57,7.85a9.38,9.38,0,0,0-2.6,4.76v98.9q0,19.77,0,39.55.25,14.65-.39,29.28-.45,13.88-1.09,27.74c-.17,4,5.64-1.17,5.9-1.39q3.8-3.33,7.25-7A9,9,0,0,0,676,413.28Z"/>
        <path class="cls-1" d="M665.28,425.35l.94-18.88q.07-14.78,0-29.56,0-24.74,0-49.46v-98.9a1.81,1.81,0,0,0-.63-1.94,1.84,1.84,0,0,0-2-.27,19.11,19.11,0,0,0-5.28,6.35V371.15q.07,14.78,0,29.56a187.26,187.26,0,0,1-1.85,30.65,1.93,1.93,0,0,0,1.44,1.43,3,3,0,0,0,2.63-1.15C662.39,430.2,665.16,427.86,665.28,425.35Z"/>
        <path class="cls-1" d="M673,409.94c.55-65.81.28-131.62.28-197.43a1.36,1.36,0,0,0-1.42-1.46,6.09,6.09,0,0,0-3.73,2.15,70.67,70.67,0,0,0-5.75,5.6,6,6,0,0,0-2.26,3.66v98.9q0,19.78,0,39.56.21,14.67-.25,29.34-.27,13.88-.86,27.75c-.12,3.3,4.22.56,5.12,0a65.61,65.61,0,0,0,6.26-4.75A5.85,5.85,0,0,0,673,409.94Z"/>
        <path class="cls-1" d="M664.3,413.35l-.7-18.69,0,.92c.19-59.35.06-118.71.06-178.06,0-1.26-.7-2.75-2.24-2.64a7.29,7.29,0,0,0-2.52,1.54,7,7,0,0,0-1.92,2.24q0,54.39,0,108.78c0,16.49,0,33,0,49.45l-.08,19.8q.15,9.36.73,18.69a3,3,0,0,0,1.14,1.69,1.73,1.73,0,0,0,2-.08C662.22,416.39,664.36,415.1,664.3,413.35Z"/>
      </g>
      <path class="cls-2" d="M409.38,780.92c11.66,3.57,22.89,6.55,33.63,9l.18,0V757.47l-.34.22Q426.68,768.47,409.38,780.92Z"/>
      <path class="cls-3" d="M417.89,774.69c36.13,118.54,541,131.14,592.66-5.43,22.45-59.36-57.81-101.83-46.42-231.47,7.19-81.81,39.1-102.24,28.51-169.3-8.28-52.42-46.53-115.11-113.34-137.85-68.62-23.35-130.17,7.23-142.06,13.42-52.15-19.57-120.82-35.1-175.46-5C480.47,283.74,437,364.25,435.22,431.4c-1.88,68.71,36.14,78.77,38.58,153.47C477.25,690.51,403,725.86,417.89,774.69Z"/>
      <path class="cls-4" d="M-128.33-20.79V-208.24h1733v100.37h67V1221.84H1375.1v251.32H965v-93.44H443.19v4.89H-473.89V-20.79ZM714.31,583.86a96.53,96.53,0,0,0,16.25-1.35c43.93-7.41,64-42.39,75.8-36.55,6.89,3.44,2.25,16.61,4.06,40.61,2.43,32.31,14.39,55.38,36.13,97.32a495,495,0,0,0,31.6,52.67c3.39-16.89,8-42.38,11.85-73.73,2.63-21.75,3.62-36,4.49-48.15a19,19,0,0,0,6.45-1,19.42,19.42,0,0,0,12.37-24.45,18.85,18.85,0,0,0-2.76-5.35,20.65,20.65,0,0,0-11.89-7.54,313.56,313.56,0,0,1,8.81-35.26c10-32.19,20.35-42.68,24.66-63.92,3.88-19.12,3.92-40.72.22-62.6v0c5.43-26.33,1.5-50.32-.18-59-4,2.36-9.08,5.29-15.24,8.52-15.89-35.15-42.12-66.27-78.29-83-55.75-25.85-112.74-7.17-131.66,0-16.69-6.42-83.49-29.91-144.82,2.64C527.53,302,503.25,333.72,489,368.9a245.87,245.87,0,0,1-22.13-14.63c-1.7,11.5-5.82,46.39,7.12,79.1h0c-1.34,18.78,0,36.93,3.95,53,5.51,22.4,14.8,35.62,22.36,59.52a216.53,216.53,0,0,1,7.93,35.27A403.64,403.64,0,0,1,512.8,641q-.69,19.38-2,39.64Q509,709,506.17,735.59c50-37.32,69.15-74.11,77.4-101,9.36-30.52,5.68-50.78,21-64.28C618,558.41,646.79,553.1,714.31,583.86ZM443,790l.18,0a466,466,0,0,0,92.62,12,293.84,293.84,0,0,0,31.34-.6c-4.95-4-10.28-8.31-16.08-13C535,775.33,511.63,756.47,481.83,733q-18.31,11-38.64,24.5c-.11.07-.22.16-.34.23q-16.17,10.77-33.47,23.22C421,784.48,432.27,787.47,443,790Z"/>
      <g>
        <path class="cls-5" d="M621.94,616.27a19.09,19.09,0,0,0,8.91,16.22,7.9,7.9,0,0,0,1.11.68,19.33,19.33,0,1,0-.68-33.43,17.89,17.89,0,0,0-3.45,2.68A19.3,19.3,0,0,0,621.94,616.27Z"/>
        <path class="cls-6" d="M572.76,691.16l.64,4.6,16.37,118.67c15.12,9.9,27,14.13,40.34,11.25,17.17-3.71,32.85-18.27,40-37.21a64.06,64.06,0,0,0,2-6.1,63.27,63.27,0,0,0,0-32.37A83.76,83.76,0,0,0,659,722.26c-.48-.67-1-1.29-1.39-1.87-.15-.2-.3-.38-.43-.57l-.55-.69c-.26-.33-.51-.64-.75-.92s-.46-.55-.66-.8c-.41-.47-.75-.86-1-1.15l-.41-.43A63.78,63.78,0,0,0,630.14,700v-.07a99.09,99.09,0,0,0-16.36-4.72A197.34,197.34,0,0,0,572.76,691.16Z"/>
        <path class="cls-7" d="M454.46,712c11.13,8.32,21.6,16.1,31.4,23.51,30.13,22.73,53.77,41,70.06,53.63,5.88,4.59,11.27,8.79,16.25,12.64,6.44,4.91,12.22,9.15,17.6,12.67L573.4,695.76l-.64-4.6c-4.25,0-8.46.06-12.66.25-2,.07-3.94.18-5.9.3-1.78.13-3.52.26-5.27.42-10.09.84-20,2.13-29.39,3.72A466.41,466.41,0,0,0,454.46,712Z"/>
        <path class="cls-8" d="M554.2,691.71c2-.12,3.92-.23,5.9-.3,4.2-.19,8.41-.29,12.66-.25a197.34,197.34,0,0,1,41,4,99.09,99.09,0,0,1,16.36,4.72V700a63.78,63.78,0,0,1,23.63,15.87l.41.43c.24.29.58.68,1,1.15.2.25.43.51.66.8s.49.59.75.92l.55.69c.13.19.28.37.43.57.43.58.91,1.2,1.39,1.87A83.76,83.76,0,0,1,672.17,750c3.71,10.93,5.33,24.47,0,39a47.59,47.59,0,0,1-2.46,5.72,160.48,160.48,0,0,0,47.69-23.36c39.31-28.32,54.94-67.44,61.86-85.42a211.39,211.39,0,0,0,10.3-36.08c6.08-1.79,12.34-3.85,18.75-6.23l4.42-1.69,16.09-5.32,50.94-16.86a24.94,24.94,0,0,0,11.5-5.37l-.12,0-.57-.15L890,614a19.07,19.07,0,0,1-4.4-1.69,18.5,18.5,0,0,1-4.72-3.56c-.28-.29-.55-.57-.82-.88h0a19.57,19.57,0,0,1-1.45-1.94,20.7,20.7,0,0,1-1.22-2.16c-.19-.38-.35-.76-.52-1.16l-.23-.6c-.09-.2-.15-.4-.22-.6a20,20,0,0,1-.87-4.53c0-.21,0-.43-.05-.65a20.88,20.88,0,0,1,.26-4c.06-.42.16-.83.25-1.24a5.27,5.27,0,0,1,.14-.57c.06-.28.15-.55.23-.81a19,19,0,0,1,.84-2.21c.16-.34.32-.68.5-1a3.85,3.85,0,0,1,.24-.5c.09-.16.18-.33.27-.48.18-.31.37-.62.58-.92a13.72,13.72,0,0,1,1.33-1.73,25,25,0,0,0-11.35,2.42c-7.91,3.08-19.59,7.44-33.91,12.16l-12.82,4.19c-10,3.23-17.3,5.55-22.92,7l-.87.22-1.79.45-1.42.32c-.47.11-.92.2-1.35.28l-.11,0-1.22.23c-.93.16-1.79.28-2.59.36-11.46,1.18-20.2-3.29-34.22-8.57-13.84-5.23-16.32-8.22-30.81-14.89h0l-2.84-1.32c-14.26-6.54-26.7-11.94-43-13.94a107.53,107.53,0,0,0-18-.89l-2,.08c-1.32.09-2.68.19-4.08.32-1.05.11-2.12.23-3.21.37s-2.19.31-3.32.5c-.75.13-1.51.26-2.28.41-1.08.2-2.17.44-3.28.69l-.49.12c-1.37.32-2.76.68-4.17,1.07l-.71.22c-1.09.32-2.2.66-3.32,1q-2.49.83-5,1.83h0A95.94,95.94,0,0,0,597.56,598l22.2.51a25.85,25.85,0,0,1,5.34-.09l.71.09h.12a23.78,23.78,0,0,1,5.34,1.21c.37-.22.74-.43,1.12-.62h0c.38-.21.78-.39,1.17-.56s.68-.3,1-.42.79-.28,1.19-.39l.57-.17c.2-.06.42-.11.62-.15a3.43,3.43,0,0,1,.44-.09,12.71,12.71,0,0,1,1.5-.26c.33,0,.67-.07,1-.09s.89-.06,1.36-.06a6.69,6.69,0,0,1,.77,0h.3a16.68,16.68,0,0,1,1.87.19c.32,0,.64.1,1,.17s.81.17,1.2.28l1,.29,1,.37.76.32c.23.09.45.2.67.31a16.41,16.41,0,0,1,1.84,1c.43.26.83.54,1.22.83l.35.27s0,0,0,0l.47.38c.21.16.4.33.6.51s.45.41.67.64c.47.47.92,1,1.35,1.48.13.15.25.32.38.48s.36.46.52.71.3.43.44.66.23.37.34.57a12.48,12.48,0,0,1,.68,1.24c.11.22.21.42.3.64s.17.37.25.57.17.43.26.66.21.59.31.89.15.5.21.74.09.33.13.5c.13.51.23,1,.31,1.56a14.18,14.18,0,0,1,.17,1.46c0,.3,0,.6,0,.9s0,.4,0,.6a20.18,20.18,0,0,1-.12,2.21,0,0,0,0,1,0,0c0,.35-.1.69-.15,1a2,2,0,0,1-.06.34l-.15.74c-.09.35-.18.69-.28,1s-.2.68-.32,1-.25.66-.38,1-.28.65-.43,1c0,0,0,0,0,0-.27.55-.57,1.1-.89,1.63s-.68,1.06-1,1.56a20.24,20.24,0,0,1-1.83,2.1,2.13,2.13,0,0,1-.22.21,2.72,2.72,0,0,1-.39.37,1.88,1.88,0,0,1-.3.27c-.31.28-.62.54-.94.78s-.42.32-.62.47c-.38.27-.77.53-1.17.77s-1.08.62-1.64.89a6.82,6.82,0,0,1-.68.31c-.21.1-.41.18-.62.26l-.67.25a12.59,12.59,0,0,1-1.36.42l-.69.17c-.35.08-.69.15-1,.21s-.71.11-1.06.15c0,0,0,0-.05,0-.23,0-.48.06-.73.08l-.73,0h-.74a18.94,18.94,0,0,1-2.52-.16,17.12,17.12,0,0,1-2.43-.47,18.07,18.07,0,0,1-2.29-.76,21.36,21.36,0,0,1-2.16-1h0l-.89.36h0c-.3.11-.61.23-.92.32l-.5.15c-.25.07-.51.15-.78.21s-.51.13-.78.18a7.54,7.54,0,0,1-.77.16l-.85.14-.4.06-.84.09c-.29,0-.57,0-.86.06a25.93,25.93,0,0,1-3.32,0h0c-.52,0-1.06-.09-1.59-.16h-3.46c-4.75,0-9.53.09-14.32.11l-11.47.14L588,635l-4.17,0h0a81.22,81.22,0,0,1-5.11,25.11A82.38,82.38,0,0,1,569.36,678l-4.84,4.37h0Q559.35,687.07,554.2,691.71Z"/>
        <path class="cls-7" d="M409.38,780.92c11.66,3.57,22.89,6.55,33.63,9l.18,0a465.84,465.84,0,0,0,92.62,12,291.21,291.21,0,0,0,31.34-.6c-4.95-4-10.28-8.3-16.08-13C535,775.34,511.63,756.48,481.83,733q-18.31,11-38.64,24.5l-.34.22Q426.68,768.47,409.38,780.92Z"/>
        <path class="cls-6" d="M875.53,596.21c0,.22,0,.44.05.65a19.51,19.51,0,0,0,.89,4.54c.06.2.13.39.2.59l.23.6c.17.4.33.78.52,1.16a20.7,20.7,0,0,0,1.22,2.16,19.57,19.57,0,0,0,1.45,1.94h0c.27.31.54.59.82.88a18.5,18.5,0,0,0,4.72,3.56A18.26,18.26,0,0,0,890,614c.19.06.38.12.57.16l.57.15.12,0h0a17.68,17.68,0,0,0,3.18.33,19,19,0,0,0,6.46-1,19.31,19.31,0,0,0-2.28-37.33,19.45,19.45,0,0,0-18.48,6.41h0a13.72,13.72,0,0,0-1.33,1.73c-.21.3-.4.61-.58.92-.09.15-.18.32-.27.48a5.21,5.21,0,0,0-.24.47c-.18.34-.34.68-.5,1a19,19,0,0,0-.84,2.21c-.08.26-.17.53-.23.81a5.27,5.27,0,0,0-.14.57c-.09.41-.19.82-.25,1.24A20.88,20.88,0,0,0,875.53,596.21Z"/>
        <path class="cls-9" d="M574.38,632.36c2.48,2.76,6.63,2.72,9.44,2.69,11.08-.11,22.64-.18,35.56-.34a25.07,25.07,0,0,0,6.66,0,22.62,22.62,0,0,0,5.92-1.57,7.9,7.9,0,0,1-1.11-.68,19.09,19.09,0,0,1-8.91-16.22,19.3,19.3,0,0,1,5.89-13.85,17.89,17.89,0,0,1,3.45-2.68,50.61,50.61,0,0,0-5.48-1.24c-4.43-.74-6.21-.43-15.1-.47-6.37,0-7.91-.21-13.15,0-3.09.1-4.64.16-5.23.25-10.21,1.7-16,14.24-16.66,15.79C574.52,616.6,569.77,627.26,574.38,632.36Z"/>
        <path class="cls-6" d="M621.94,616.27a19.09,19.09,0,0,0,8.91,16.22,7.9,7.9,0,0,0,1.11.68,19.33,19.33,0,1,0-.68-33.43,17.89,17.89,0,0,0-3.45,2.68A19.3,19.3,0,0,0,621.94,616.27Z"/>
        <line class="cls-5" x1="589.76" y1="814.43" x2="589.8" y2="814.66"/>
      </g>
      <g>
        <path class="cls-10" d="M708.27,623.71c-2.1,3.88-4.94,10.67-2.81,17.62.87,2.84,2.48,4.87,5.68,8.83,8.72,10.79,14.25,12.46,15,18.2.31,2.29-.07,5.66-3.46,10.13"/>
        <path class="cls-10" d="M721.56,620.77c-6.23,11.4-4.83,17.73-3.49,20.76s4.64,7.4,5.7,8.81c3.9,5.16,5.78,6.26,6.35,9.18.4,2.08.18,5.38-3.47,10.13"/>
        <path class="cls-10" d="M693.43,666.8c-6.23,11.4-4.83,17.73-3.49,20.76s4.64,7.4,5.7,8.81c3.9,5.16,5.79,6.26,6.35,9.18.4,2.08.19,5.38-3.47,10.13"/>
        <path class="cls-10" d="M704.64,634.57c-2.09,3.88-4.93,10.67-2.81,17.62.87,2.84,2.49,4.87,5.68,8.83,8.73,10.79,14.26,12.46,15,18.2.31,2.29-.08,5.66-3.46,10.13"/>
        <path class="cls-10" d="M701.1,645.08c-2.1,3.88-4.94,10.67-2.81,17.62.87,2.84,2.48,4.87,5.68,8.83,8.72,10.79,14.25,12.46,15,18.2.31,2.29-.07,5.66-3.46,10.13"/>
        <path class="cls-10" d="M697.17,656.49c-2.1,3.88-4.93,10.68-2.81,17.62.87,2.84,2.48,4.88,5.68,8.83,8.72,10.79,14.26,12.46,15,18.2.31,2.29-.08,5.66-3.47,10.13"/>
      </g>
      <path class="cls-6" d="M568.53,445.54c-1.27,5.66-4.32,25.28,3.52,62.61,2.57,12.21,5.1,24.24,10.59,34.39,25.29,46.81,109.08,45.46,122.63,45.25,20.09-.33,89.56-1.45,116.07-44.82,8-13.08,11.89-29.66,13.51-36.58a164.26,164.26,0,0,0,2.64-60,36,36,0,0,0-5.28-15c-18-28-71.5-18.71-102.3-40.57a86.6,86.6,0,0,1-16-15.09,75.9,75.9,0,0,1-11.5-20.65A91.67,91.67,0,0,1,691.7,374a104.46,104.46,0,0,1-16.05,16.74c-37.4,30.28-85.44,11.84-102.21,38.93C571.29,433.14,570.37,437.27,568.53,445.54Z"/>
      <g id="maske">
        <ellipse class="cls-6" cx="856.47" cy="499.23" rx="16.9" ry="15.76"/>
        <ellipse class="cls-6" cx="560.99" cy="499.23" rx="16.9" ry="15.76"/>
        <path class="cls-7" d="M473.94,433.38h0a96.63,96.63,0,0,0,24,35.67c13.08,12.19,29.38,20.33,46.9,25.51a180.73,180.73,0,0,0,25.65,5.55h0l1.15.17c2,.28,4.09.54,6.13.77,47.17,5.23,94.07-4.7,105.49-10.55a39.81,39.81,0,0,1,20.29-5.05,39.31,39.31,0,0,1,19.78,6.64c12,7.55,63.47,18,112.74,8.62l.45-.09,3.07-.62a157.76,157.76,0,0,0,30.8-9.72c14-6.18,26.89-14.71,37.44-26.27,13.87-15.22,21.07-32.78,24.52-49.43v0c5.43-26.33,1.5-50.33-.18-59-4,2.36-9.08,5.3-15.24,8.53a337.64,337.64,0,0,1-30.75,14.18c-47.41,19.05-65.07,13.52-107.52,29.2-1.55.56-3.12,1.16-4.74,1.8h0l-1.37.53c-43.12,17.07-42.29,28.29-66.28,29-28.39.87-34.09-14.71-76.8-29.24h0c-.84-.3-1.71-.59-2.59-.88-1.45-.47-2.94-.95-4.47-1.42-38.25-11.76-47.57-5.06-83.88-16.4A238.21,238.21,0,0,1,489,368.91a248,248,0,0,1-22.13-14.63C465.12,365.78,461,400.66,473.94,433.38Z"/>
        <ellipse cx="802.98" cy="453.29" rx="15.56" ry="22.07"/>
        <ellipse cx="604.08" cy="453.29" rx="15.56" ry="22.07"/>
      </g>
      <path class="cls-11" d="M707.43,492.41a8.69,8.69,0,0,1,4.18,6.68,8.24,8.24,0,0,1-4.18,7.56"/>
      <path class="cls-11" d="M692.87,492.43a8.64,8.64,0,0,0-4.18,6.67,8.23,8.23,0,0,0,4.18,7.56"/>
      <line class="cls-12" x1="586.43" y1="429.15" x2="594.92" y2="436.66"/>
      <line class="cls-12" x1="592.78" y1="441.32" x2="583.46" y2="433.29"/>
      <line class="cls-12" x1="809.32" y1="434.66" x2="817.28" y2="428.01"/>
      <line class="cls-12" x1="813.1" y1="438.41" x2="821.08" y2="431.19"/>
      <line class="cls-12" x1="397.66" y1="732.81" x2="167.77" y2="719.01"/>
      <line class="cls-12" x1="371.97" y1="697.05" x2="142.08" y2="683.25"/>
      <line class="cls-12" x1="355.55" y1="765.76" x2="125.67" y2="751.97"/>
      <path class="cls-13" d="M1644.12-1.26c-212.41,147.43-399,193.74-549,199.72C805.51,210,694.21,69.45,486.6,144.76,283,218.6,286,391.49,75,478.85c-172.36,71.37-355.1,30.88-487.6-17.9q-6.89-240.87-13.78-481.74Z"/>
      <path class="cls-13" d="M-427.58,1203.68c34.49-51.85,93.74-123.59,187.25-163.29,183-77.67,295.94,52.93,531.59,20.2C512.75,1029.83,489.47,904,731.77,860.68c247.19-44.22,355.1,71.75,489.51-21.28,107.41-74.33,91.24-195.81,204.3-241.1,78.32-31.38,163.35-5.46,224.28,22.36q15.73,288.38,31.46,576.75Z"/>
    </g>
  </g>
</svg>
