<svg id="helt_1" data-name="helt 1" xmlns="http://www.w3.org/2000/svg" width="198.43mm" height="185.77mm" viewBox="0 0 562.47 526.59">
  <defs>
    <style>
      .cls-1 {
        fill: #dcb650;
        isolation: isolate;
      }

      .cls-2 {
        fill: #27b8cd;
      }

      .cls-2, .cls-8 {
        stroke: #000;
      }

      .cls-2, .cls-4, .cls-5, .cls-6, .cls-7, .cls-8, .cls-9 {
        stroke-miterlimit: 10;
      }

      .cls-2, .cls-5, .cls-8 {
        stroke-width: 0.5px;
      }

      .cls-3, .cls-7 {
        fill: #edcda4;
      }

      .cls-4, .cls-6, .cls-9 {
        fill: none;
      }

      .cls-4, .cls-5, .cls-6, .cls-7 {
        stroke: #1d1d1b;
      }

      .cls-5, .cls-8 {
        fill: #ffed00;
      }

      .cls-6, .cls-9 {
        stroke-width: 2px;
      }

      .cls-9 {
        stroke: #ffed00;
      }
    </style>
  </defs>
  <g>
    <path class="cls-1" d="M93.13,333.39c18.93,64,283.51,70.85,310.56-2.93,11.77-32.07-30.29-55-24.32-125,3.77-44.2,20.49-55.24,14.94-91.47-4.34-28.31-24.39-62.18-59.4-74.46-36-12.62-68.2,3.9-74.43,7.24-27.33-10.57-63.32-19-92-2.72-42.6,24.16-65.36,67.66-66.32,103.93-1,37.12,18.94,42.56,20.22,82.91C124.24,287.92,85.34,307,93.13,333.39Z"/>
    <path class="cls-2" d="M338.52,297.1h0a21.65,21.65,0,0,1-.74,16.26C333,323.38,322,325,321.15,325.11c-1,.7-5.07,3.54-6.49,8.21a14.5,14.5,0,0,0-.62,4.19,14.34,14.34,0,0,0,6.89,12.26c-.18.32-.33.62-.49.9-1.86,3.46-4.46,8.29-7.82,13.69-7.19,11.53-17.85,25.68-32.28,34.72h0a57.06,57.06,0,0,1-28.11,9.05,56.48,56.48,0,0,1-29.16-6.88c-16-8.48-28.18-23.16-36-34.95h0a150.71,150.71,0,0,1-8-13.47h.12a14.36,14.36,0,0,0,8.1-26.22c-1.6-.39-13.72-3.48-19.67-15.76-5.77-11.89-1.16-23-.47-24.55a68.25,68.25,0,0,1,13.28-32.57c34.77-45.1,125-38,150.82,6C338.08,271.41,339.65,284.5,338.52,297.1Z"/>
    <path class="cls-3" d="M342.76,337.51a14.37,14.37,0,1,1-14.36-14.36,14.13,14.13,0,0,1,4.13.6A14.36,14.36,0,0,1,342.76,337.51Z"/>
    <path class="cls-2" d="M363.5,317.8c-.53,16.33-16,33.29-27.29,31.76a14.36,14.36,0,0,0-3.68-25.81,14.43,14.43,0,0,0-11.38,1.36,9.2,9.2,0,0,1,1.14-4.43c2.76-4.86,8.31-2.87,11.69-7.31,1.27-1.66.49-1.93,3.59-13,.39-1.39.72-2.53.95-3.28h0c1.36-6,.53-10,3.08-10.72C347.14,284.77,364.05,300.16,363.5,317.8Z"/>
    <path class="cls-2" d="M143.62,318.69c.53,16.33,16,33.28,27.29,31.76A14.36,14.36,0,0,1,178.72,324a14.14,14.14,0,0,1,7.25,2,9.15,9.15,0,0,0-1.14-4.43c-2.76-4.86-8.31-2.87-11.69-7.31-1.27-1.66-.48-1.94-3.59-13-.39-1.39-.72-2.53-1-3.28h0c-1.36-6-.53-10-3.08-10.72C160,285.66,143.07,301.05,143.62,318.69Z"/>
    <path class="cls-3" d="M193.52,338.45a14.36,14.36,0,0,1-14.36,14.37H179a14.36,14.36,0,1,1,14.48-14.37Z"/>
    <path class="cls-3" d="M163.92,135.87c-.86,3.85-2.94,17.17,2.39,42.53,1.75,8.3,3.47,16.47,7.19,23.37,17.19,31.79,74.1,30.88,83.31,30.73,13.64-.22,60.83-1,78.85-30.44,5.43-8.89,8.07-20.15,9.17-24.85a111.72,111.72,0,0,0,1.8-40.74A24.55,24.55,0,0,0,343,126.29c-12.2-19-48.57-12.71-69.5-27.56A58.78,58.78,0,0,1,262.7,88.48a51.64,51.64,0,0,1-7.82-14,61.76,61.76,0,0,1-7.29,12.83,70.76,70.76,0,0,1-10.91,11.37c-25.4,20.57-58,8-69.42,26.44C165.8,127.45,165.17,130.26,163.92,135.87Z"/>
    <path class="cls-4" d="M258.28,167.71a5.93,5.93,0,0,1,2.84,4.54,5.59,5.59,0,0,1-2.84,5.13"/>
    <path class="cls-4" d="M248.39,167.72a5.88,5.88,0,0,0-2.85,4.54,5.6,5.6,0,0,0,2.85,5.13"/>
    <g id="maske">
      <ellipse class="cls-3" cx="354.62" cy="170.1" rx="11.48" ry="10.71"/>
      <ellipse class="cls-3" cx="158.8" cy="170.1" rx="11.48" ry="10.71"/>
      <path class="cls-5" d="M99.67,124.67h0A65.63,65.63,0,0,0,116,148.91c8.89,8.28,20,13.81,31.86,17.33A122.52,122.52,0,0,0,165.24,170h0l.78.11c1.39.2,2.78.37,4.17.53,32,3.55,63.9-3.19,71.65-7.17a27.18,27.18,0,0,1,13.79-3.43,26.81,26.81,0,0,1,13.44,4.51c8.14,5.13,43.11,12.23,76.58,5.86l.31-.07c.69-.13,1.39-.27,2.08-.42a106.43,106.43,0,0,0,20.92-6.6,74.63,74.63,0,0,0,25.43-17.84,70.19,70.19,0,0,0,16.66-33.58h0c3.69-17.89,1-34.19-.12-40.11-2.7,1.6-6.17,3.6-10.35,5.79a225.86,225.86,0,0,1-20.89,9.64c-32.2,12.94-44.2,9.18-73,19.83-1.05.38-2.12.79-3.22,1.22h0l-.93.37c-29.29,11.59-28.73,19.21-45,19.71-19.28.59-23.16-10-52.17-19.87h0l-1.76-.59-3-1c-26-8-32.32-3.44-57-11.13a162.54,162.54,0,0,1-33.67-14.91,166.94,166.94,0,0,1-15-9.94C93.67,78.75,90.88,102.45,99.67,124.67Z"/>
      <ellipse cx="323.18" cy="138.9" rx="10.57" ry="15"/>
      <ellipse cx="188.07" cy="138.9" rx="10.57" ry="15"/>
    </g>
    <line class="cls-6" x1="176.08" y1="124.74" x2="181.85" y2="129.84"/>
    <line class="cls-6" x1="180.39" y1="133.01" x2="174.06" y2="127.55"/>
    <line class="cls-6" x1="327.49" y1="128.48" x2="332.9" y2="123.97"/>
    <line class="cls-6" x1="330.06" y1="131.03" x2="335.48" y2="126.13"/>
    <path class="cls-7" d="M262.42,430.68a75.79,75.79,0,0,0,6.07,21.79c14.14,30.53,47,41,55.86,43.47-13-15.53-17.07-33-10.26-43.42a20.33,20.33,0,0,1,7.69-6.79s4-19.1,2-35.28c-1.34-11.08-3.59-27.59-16.66-38.17-1.53-1.24-15.49-12.25-27.69-7.53C261.29,371.76,259.1,408.88,262.42,430.68Z"/>
    <path class="cls-8" d="M268.28,452.23q5,18.15,10,36.3L338,498.6a58.25,58.25,0,0,1-16.5-30.26,56.83,56.83,0,0,1,.29-22.85l-19.65-24.93Z"/>
    <path class="cls-7" d="M235.76,430.24A75.47,75.47,0,0,1,229.69,452c-14.14,30.53-47,41-55.85,43.47,13-15.53,17.07-33,10.25-43.42a20.28,20.28,0,0,0-7.68-6.79s-4-19.1-2-35.28c1.35-11.08,3.6-27.59,16.66-38.17,1.53-1.24,15.49-12.25,27.69-7.53C236.9,371.32,239.09,408.44,235.76,430.24Z"/>
    <path class="cls-8" d="M229.91,451.79q-5,18.15-10,36.3l-59.69,10.07a58.31,58.31,0,0,0,16.51-30.26,56.83,56.83,0,0,0-.29-22.85l19.64-24.93Z"/>
    <g>
      <path class="cls-9" d="M247.24,265.34c-.88,3-1.83,8.21.7,12.73,1,1.86,2.48,3,5.31,5.31,7.72,6.21,11.84,6.54,13.25,10.43.57,1.55.81,4-.88,7.6"/>
      <path class="cls-9" d="M256.07,261.28c-2.62,8.9-.68,13.11.71,15a40,40,0,0,0,5.32,5.28c3.5,3,5,3.49,5.82,5.45.59,1.39.95,3.73-.89,7.6"/>
      <path class="cls-9" d="M243.41,297.68c-2.63,8.9-.69,13.12.71,15a40,40,0,0,0,5.31,5.28c3.5,3,5,3.5,5.82,5.45.6,1.39.95,3.73-.88,7.6"/>
      <path class="cls-9" d="M246.35,273.48c-.88,3-1.83,8.2.71,12.72,1,1.86,2.47,3,5.3,5.31,7.73,6.21,11.85,6.54,13.26,10.43.56,1.55.8,4-.88,7.6"/>
      <path class="cls-9" d="M245.47,281.35c-.88,3-1.83,8.2.71,12.73,1,1.85,2.47,3,5.3,5.3,7.73,6.22,11.84,6.55,13.26,10.43.56,1.56.8,4-.89,7.61"/>
      <path class="cls-9" d="M244.45,289.92c-.87,3-1.82,8.2.71,12.73,1,1.85,2.48,3,5.31,5.3,7.72,6.21,11.84,6.54,13.25,10.43.57,1.55.81,4-.88,7.6"/>
    </g>
  </g>
</svg>
