<svg xmlns="http://www.w3.org/2000/svg" width="32.37mm" height="32.26mm" viewBox="0 0 91.77 91.45">
  <g id="Layer_2" data-name="Layer 2">
    <g id="VpBq7p.tif">
      <path d="M45.91,0C18.68.13-.26,22,0,45.64-.62,69.75,19.6,91.33,45.43,91.45A46.11,46.11,0,0,0,91.77,45.17C91.56,22.27,73.4-.12,45.91,0ZM67.77,72.25c-.54,1.17-2.14.52-3.26.53-6.31,0-12.62,0-18.93,0v0c-6.78,0-13.57,0-20.35,0-2.09,0-2.29-.65-1.31-2.32,4.19-7.06,8.31-14.14,12.48-21.2,1.75-3,1.77-3-.66-5.13a15.1,15.1,0,0,1-3.93-17C34,22.06,39.17,17.31,47.63,18A15.23,15.23,0,0,1,60.35,28.52c1.75,5.63-.58,13-5.36,16.29-1.5,1-1.59,1.85-.77,3.25q6.16,10.5,12.26,21C67.06,70.11,68.25,71.24,67.77,72.25Z"/>
    </g>
  </g>
</svg>
