<svg xmlns="http://www.w3.org/2000/svg" width="32.73mm" height="31.09mm" viewBox="0 0 92.77 88.14">
  <g id="Layer_2" data-name="Layer 2">
    <g id="pRcayi.tif">
      <g>
        <path d="M30.47,88.14c-.35-.1-.7-.13-1-.26A2.66,2.66,0,0,1,28,84c.56-1.11,1.21-2.18,1.82-3.26,1.76-3.1,3.53-6.2,5.28-9.3a3.36,3.36,0,0,1,2.39-1.8,3.59,3.59,0,0,1,1.69.11A26.75,26.75,0,0,0,70.44,55.71a26.06,26.06,0,0,0,2.28-7.15,26.74,26.74,0,0,0-2.54-16.64,27,27,0,0,0-5.18-7,10.4,10.4,0,0,1-.72-.76,2.93,2.93,0,0,1-.42-3.33c.55-1.14,1.23-2.21,1.85-3.31Q70,9.88,74.37,2.26A7.48,7.48,0,0,1,75.24,1,2.66,2.66,0,0,1,77,.05a5.49,5.49,0,0,1,.7,0H90.83a3.61,3.61,0,0,1,1,.12,1.29,1.29,0,0,1,.93,1.57,4,4,0,0,1-.45,1.16q-4.1,7.2-8.18,14.42a.49.49,0,0,0,0,.63,43.51,43.51,0,0,1,6.24,11.85,42.84,42.84,0,0,1,1.94,8.06,44.93,44.93,0,0,1,.44,6.65,44.47,44.47,0,0,1-.91,8.61A44.17,44.17,0,0,1,64.3,85.29a43.34,43.34,0,0,1-8.14,2.2,41.2,41.2,0,0,1-6.26.6.67.67,0,0,0-.34,0Z"/>
        <path d="M0,43.28a4.1,4.1,0,0,0,.06-.86A40.34,40.34,0,0,1,.5,37.51a43.29,43.29,0,0,1,2.08-8.3A44.13,44.13,0,0,1,28.63,2.79,44.19,44.19,0,0,1,36.3.69,49.54,49.54,0,0,1,45,0H61.76a3.94,3.94,0,0,1,2.29.6,2.65,2.65,0,0,1,.79,3.49c-.63,1.23-1.34,2.43-2,3.64q-2.54,4.47-5.06,8.93a3.41,3.41,0,0,1-2.39,1.8,3.72,3.72,0,0,1-1.69-.1,26.7,26.7,0,0,0-33.36,20,25.68,25.68,0,0,0-.57,7.26A26.48,26.48,0,0,0,27.54,63a10.47,10.47,0,0,1,1,1,2.91,2.91,0,0,1,.41,3.31c-.55,1.15-1.23,2.23-1.86,3.34L18.36,86a7,7,0,0,1-.82,1.19,2.71,2.71,0,0,1-1.71.9l-.28.06H1.45A1.63,1.63,0,0,1,0,87v-.47a6.38,6.38,0,0,1,.56-1.32Q4.61,78,8.67,70.9a.55.55,0,0,0-.05-.71,40.09,40.09,0,0,1-2.68-4.06A43.69,43.69,0,0,1,.84,52.58a45.48,45.48,0,0,1-.73-5.71c0-.62,0-1.24-.11-1.85Z"/>
        <path d="M46.44,52.62H31.9a.78.78,0,0,1-.65-.27c-1.14-1.29-2.38-2.49-3.46-3.83a11.22,11.22,0,0,1-2.09-3.68,7.36,7.36,0,0,1,2.64-8,6.82,6.82,0,0,1,4.81-1.52A.6.6,0,0,0,33.8,35a7.07,7.07,0,0,1,5-3.34,8,8,0,0,1,7.4,2.49c.26.27.25.28.5,0a8,8,0,0,1,5.51-2.61,7.35,7.35,0,0,1,6.07,2.4,7,7,0,0,1,.86,1.16.44.44,0,0,0,.45.23,7.09,7.09,0,0,1,4.39,1.1,7.47,7.47,0,0,1,2.83,9.39,13.72,13.72,0,0,1-2.31,3.42c-1,1.11-2,2.19-3,3.29a.46.46,0,0,1-.39.13H46.44ZM54.33,49c.05,0,.11,0,.17,0h5.1a.37.37,0,0,0,.3-.13c.82-.92,1.68-1.8,2.46-2.75a6.11,6.11,0,0,0,1.5-3.44,3.72,3.72,0,0,0-3.19-3.82c-.17,0-.22,0-.21.2a4.57,4.57,0,0,1-.09,1,7.64,7.64,0,0,1-1.45,3.37c-1.36,1.83-2.86,3.55-4.4,5.24A.6.6,0,0,0,54.33,49ZM38.52,49l-.3-.33q-2.16-2.34-4.09-4.86a7.25,7.25,0,0,1-1.75-4.7c0-.19-.09-.21-.23-.18a4.42,4.42,0,0,0-.81.23A3.7,3.7,0,0,0,29,42.55a5.4,5.4,0,0,0,1,3,43.15,43.15,0,0,0,2.94,3.4.4.4,0,0,0,.34.12h5A.27.27,0,0,0,38.52,49ZM36,39.88a.8.8,0,0,0,.05.19,1.25,1.25,0,0,0,.09.25,10.66,10.66,0,0,0,1.56,2.33c1.68,2,3.45,3.91,5.2,5.84a1.47,1.47,0,0,0,1.37.58c.24,0,.32-.07.32-.33,0-2,0-4,0-5.94,0-.69,0-.68-.68-.74a22,22,0,0,1-5.66-1.25C37.54,40.54,36.83,40.2,36,39.88Zm20.75,0-.27.11a22.58,22.58,0,0,1-7.94,2.1c-.32,0-.38.14-.37.43,0,1.95,0,3.89,0,5.83,0,.71,0,.7.71.72a.82.82,0,0,0,.7-.3c1.36-1.46,2.7-2.93,4-4.44a28.13,28.13,0,0,0,2.45-3A4.46,4.46,0,0,0,56.79,39.88Zm-8.27-1.34.85-.1a19.19,19.19,0,0,0,5.79-1.74c.65-.3.65-.29.08-.76a4,4,0,0,0-3.34-.84,4.39,4.39,0,0,0-3.55,3.13C48.31,38.42,48.25,38.6,48.52,38.54ZM39.88,35a3.67,3.67,0,0,0-2.56,1.17c-.23.24-.22.24.07.37A19.52,19.52,0,0,0,44,38.5c.59.06.59.08.41-.48A4.53,4.53,0,0,0,39.88,35Z"/>
        <path d="M46.4,57.9H31.84c-.28,0-.36-.07-.35-.35,0-1,0-1.95,0-2.93,0-.24.05-.33.32-.33H61c.25,0,.31.08.31.31,0,1,0,2,0,3,0,.3-.09.34-.36.34Z"/>
        <path d="M46.39,31.44a2.52,2.52,0,1,1,0-5,2.54,2.54,0,0,1,2.51,2.51A2.51,2.51,0,0,1,46.39,31.44Z"/>
      </g>
    </g>
  </g>
</svg>
