<svg id="helt_1" data-name="helt 1" xmlns="http://www.w3.org/2000/svg" width="198.43mm" height="185.77mm" viewBox="0 0 562.47 526.59">
  <defs>
    <style>
      .cls-1 {
        fill: #944f15;
      }

      .cls-1, .cls-4 {
        isolation: isolate;
      }

      .cls-2 {
        fill: #294797;
      }

      .cls-3 {
        fill: #edcda4;
      }

      .cls-4 {
        fill: #1d1d1b;
      }

      .cls-10, .cls-5 {
        fill: none;
      }

      .cls-5, .cls-9 {
        stroke: #1d1d1b;
      }

      .cls-10, .cls-5, .cls-9 {
        stroke-miterlimit: 10;
      }

      .cls-6 {
        fill: #5db136;
      }

      .cls-7, .cls-9 {
        fill: #e6007e;
      }

      .cls-8 {
        fill: #f39132;
      }

      .cls-10 {
        stroke: #e6007e;
        stroke-width: 2px;
      }
    </style>
  </defs>
  <g>
    <path class="cls-1" d="M228,142.47c0,7.06-3.44,13-8.07,14.58a9,9,0,0,1-2.79-1.59c-3.16-2.6-5.28-7.44-5.28-13,0-.34,0-.67,0-1,.31-6.62,3.64-12.05,8-13.57,4.4,1.52,7.74,6.95,8.05,13.57C227.94,141.8,228,142.13,228,142.47Z"/>
    <path class="cls-1" d="M359.06,142.47c0,7.31-3.69,13.4-8.57,14.73-4.88-1.33-8.56-7.42-8.56-14.73s3.68-13.39,8.56-14.72C355.37,129.07,359.06,135.16,359.06,142.47Z"/>
    <path class="cls-1" d="M383.89,101.56A291.7,291.7,0,0,1,352,115.11q-5.49,2-10.84,3.6A262.15,262.15,0,0,1,291.55,129l-1.13.11-.66.07c-.32,0-.64.07-1,.09l-.9.08-3.06.28c-.23,0-.47,0-.7.06-2.45-.18-4.93-.42-7.41-.69a264.44,264.44,0,0,1-59.26-13.5c-1.36-.48-2.72-1-4.09-1.47l-2.28-.85-1.11-.42c-.92-.35-1.81-.69-2.68-1-8.64-3.38-15.09-6.38-18.52-8l-.65-.31-.4-.19c-6.31-3.11-11.59-6-15.62-8.38,1.65-10.28,6.86-32.69,25.72-49.23,27.72-24.3,73.52-25.92,113-2.31,5.12-1.47,29.56-7.92,50.42,5.87a50.83,50.83,0,0,1,15.38,16.23C384.92,79,384.92,93.13,383.89,101.56Z"/>
    <path class="cls-2" d="M367.83,298.67h0a21.6,21.6,0,0,1-.74,16.26c-4.82,10-15.78,11.63-16.63,11.74-1,.7-5.06,3.54-6.49,8.21a14.5,14.5,0,0,0-.62,4.19,14.32,14.32,0,0,0,6.9,12.26c-.19.32-.34.62-.49.91-1.87,3.45-4.47,8.28-7.83,13.68-7.18,11.53-17.85,25.68-32.28,34.72h0a57.13,57.13,0,0,1-28.12,9.05,56.52,56.52,0,0,1-29.16-6.88c-16-8.48-28.18-23.16-36-34.95h0a153.19,153.19,0,0,1-8-13.47h.12a14.36,14.36,0,0,0,8.1-26.22c-1.6-.38-13.72-3.48-19.67-15.76-5.77-11.89-1.16-23-.47-24.55a68.25,68.25,0,0,1,13.28-32.57c34.78-45.1,125-38,150.82,6C367.39,273,369,286.07,367.83,298.67Z"/>
    <path class="cls-3" d="M372.08,339.08a14.37,14.37,0,1,1-14.37-14.36,14.13,14.13,0,0,1,4.13.6A14.37,14.37,0,0,1,372.08,339.08Z"/>
    <path class="cls-4" d="M392.81,319.37c-.52,16.33-16,33.29-27.29,31.76a14.36,14.36,0,0,0-3.68-25.81,14.13,14.13,0,0,0-4.13-.6,14.28,14.28,0,0,0-7.25,2,9.32,9.32,0,0,1,1.14-4.43c2.77-4.86,8.31-2.87,11.7-7.31,1.26-1.66.48-1.93,3.58-13,.39-1.39.73-2.53.95-3.28h0c1.36-5.95.53-10,3.08-10.72C376.45,286.34,393.37,301.73,392.81,319.37Z"/>
    <path class="cls-4" d="M172.94,320.26c.52,16.33,16,33.28,27.29,31.76A14.36,14.36,0,0,1,208,325.6a14.19,14.19,0,0,1,7.25,2,9.27,9.27,0,0,0-1.14-4.43c-2.77-4.86-8.32-2.87-11.7-7.31-1.27-1.66-.48-1.94-3.59-13-.39-1.39-.72-2.53-.94-3.28h0c-1.37-6-.53-10-3.08-10.72C189.29,287.23,172.38,302.62,172.94,320.26Z"/>
    <path class="cls-3" d="M222.84,340a14.37,14.37,0,0,1-14.37,14.36h-.12A14.36,14.36,0,1,1,222.84,340Z"/>
    <path class="cls-3" d="M228,142.47c0,7.06-3.44,13-8.07,14.58a9,9,0,0,1-2.79-1.59c-3.16-2.6-5.28-7.44-5.28-13,0-.34,0-.67,0-1,.31-6.62,3.64-12.05,8-13.57,4.4,1.52,7.74,6.95,8.05,13.57C227.94,141.8,228,142.13,228,142.47Z"/>
    <path class="cls-3" d="M341.13,118.71A262.15,262.15,0,0,1,291.55,129l-1.13.11q-1.26.13-2.52.24l-3.06.28c-.23,0-.47,0-.7.06-2.45-.18-4.93-.42-7.41-.69a264.44,264.44,0,0,1-59.26-13.5,374.73,374.73,0,0,0,43.06-8.85,373.44,373.44,0,0,0,44-14.75,131.64,131.64,0,0,0,19.91,17A130.45,130.45,0,0,0,341.13,118.71Z"/>
    <path class="cls-3" d="M359.06,142.47c0,7.31-3.69,13.4-8.57,14.73-4.88-1.33-8.56-7.42-8.56-14.73s3.68-13.39,8.56-14.72C355.37,129.07,359.06,135.16,359.06,142.47Z"/>
    <path class="cls-3" d="M375.57,171.56c-.32,2-.71,4-1.17,6.08-.08.38-.17.76-.26,1.14-1.1,4.7-3.74,16-9.17,24.85-9.82,16.05-28.3,23.59-45.3,27.15h0a175.73,175.73,0,0,1-33.54,3.29c-4.72.08-22,.36-40-3.69h0c-17.12-3.82-34.92-11.55-43.29-27-3.72-6.9-5.44-15.07-7.19-23.36,0-.06,0-.12,0-.18q-.9-4.35-1.53-8.22h.51l.78.11c1.39.2,2.78.38,4.17.53h.07c27.31,3,71.58-7.18,71.58-7.18,1.22-.25,3.17-.68,5.55-1.32,4.9-1.32,5.39-1.88,7.43-1.88s2.53.56,7.43,1.89c2.38.64,4.32,1.06,5.54,1.31,0,0,44.36,10.19,71.66,7.17,1.23-.13,2.46-.29,3.68-.47.16,0,.32,0,.48-.06l.79-.11C374.35,171.59,375,171.58,375.57,171.56Z"/>
    <path class="cls-5" d="M287.59,169.28a5.93,5.93,0,0,1,2.84,4.54,5.58,5.58,0,0,1-2.84,5.13"/>
    <path class="cls-5" d="M277.7,169.29a5.9,5.9,0,0,0-2.84,4.54A5.59,5.59,0,0,0,277.7,179"/>
    <g id="maske">
      <path class="cls-3" d="M395.41,171.67c0,5.92-5.14,10.71-11.48,10.71a11.7,11.7,0,0,1-9.53-4.74,10.09,10.09,0,0,1-1.95-5.89c.16,0,.32,0,.48-.06l.79-.11c.63,0,1.25,0,1.85,0a36.52,36.52,0,0,0,15.57-3.75,28.93,28.93,0,0,0,2.71-1.53A10.1,10.1,0,0,1,395.41,171.67Z"/>
      <path class="cls-3" d="M199.58,172.23a10.44,10.44,0,0,1-4,7.57,11.92,11.92,0,0,1-7.47,2.58c-6.34,0-11.48-4.79-11.48-10.71a10.17,10.17,0,0,1,.72-3.75,37.18,37.18,0,0,0,16.7,3.66h.51l.78.11c1.39.2,2.78.38,4.17.53Z"/>
      <path class="cls-6" d="M350.49,127.75c-4.88,1.33-8.56,7.41-8.56,14.72s3.68,13.4,8.56,14.73c4.88-1.33,8.57-7.42,8.57-14.73S355.37,129.07,350.49,127.75ZM227.93,141.47c-.37,7.82-5,14-10.55,14h-.29a9,9,0,0,0,2.79,1.59c4.63-1.6,8.07-7.52,8.07-14.58C228,142.13,227.94,141.8,227.93,141.47Z"/>
      <path class="cls-6" d="M188.79,103.69c3.43,1.67,9.88,4.67,18.52,8Q198.24,108.16,188.79,103.69Zm44.14,37.78c-.37-7.82-5-14-10.55-14a7.81,7.81,0,0,0-2.5.42c4.4,1.52,7.74,6.95,8.05,13.57,0,.33,0,.66,0,1,0,7.06-3.44,13-8.07,14.58a7.81,7.81,0,0,0,2.5.42c5.83,0,10.57-6.72,10.57-15C233,142.13,232.94,141.8,232.93,141.47Zm109,1c0-7.31,3.68-13.39,8.56-14.72a7.48,7.48,0,0,0-2-.27c-5.83,0-10.56,6.71-10.56,15s4.73,15,10.56,15a7.48,7.48,0,0,0,2-.27C345.61,155.87,341.93,149.78,341.93,142.47Z"/>
      <path class="cls-7" d="M417,92.72q-.5-4.59-1.27-9.32L413.34,85a324.68,324.68,0,0,1-29.45,16.61A291.7,291.7,0,0,1,352,115.11q-5.49,2-10.84,3.6A262.15,262.15,0,0,1,291.55,129l-1.13.11-.66.07c-.32,0-.64.07-1,.09q-2,.21-4,.36c-.23,0-.47,0-.7.06-2.45-.18-4.93-.42-7.41-.69a264.44,264.44,0,0,1-59.26-13.5c-1.36-.48-2.72-1-4.09-1.47l-2.28-.85-1.11-.42c-.92-.35-1.81-.69-2.68-1-8.64-3.38-15.09-6.38-18.52-8l-.65-.31-.4-.19a320,320,0,0,1-31.41-17.37c-1.26-.79-2.54-1.6-3.81-2.42-.64,3.87-1.13,7.69-1.47,11.43-3.14,34.74,6.68,63.26,26.08,73l.22.11a37.18,37.18,0,0,0,16.7,3.66h.51l.78.11c1.39.2,2.78.38,4.17.53h.07c27.31,3,71.58-7.18,71.58-7.18,1.22-.25,3.17-.68,5.55-1.32,4.9-1.32,5.39-1.88,7.43-1.88s2.53.56,7.43,1.89c2.38.64,4.32,1.06,5.54,1.31,0,0,44.36,10.19,71.66,7.17,1.23-.13,2.46-.29,3.68-.47.16,0,.32,0,.48-.06l.79-.11c.63,0,1.25,0,1.85,0a36.52,36.52,0,0,0,15.57-3.75,28.93,28.93,0,0,0,2.71-1.53C411.83,155.12,420.59,126.74,417,92.72ZM222.38,157.47a7.81,7.81,0,0,1-2.5-.42,9,9,0,0,1-2.79-1.59c-3.16-2.6-5.28-7.44-5.28-13,0-.34,0-.67,0-1,.31-6.62,3.64-12.05,8-13.57a7.81,7.81,0,0,1,2.5-.42c5.59,0,10.18,6.17,10.55,14,0,.33,0,.66,0,1C233,150.75,228.21,157.47,222.38,157.47Zm126.11,0c-5.83,0-10.56-6.72-10.56-15s4.73-15,10.56-15a7.48,7.48,0,0,1,2,.27c4.88,1.32,8.57,7.41,8.57,14.72s-3.69,13.4-8.57,14.73A7.48,7.48,0,0,1,348.49,157.47Z"/>
      <path class="cls-8" d="M227.93,141.47c-.37,7.82-5,14-10.55,14h-.29c-3.16-2.6-5.28-7.44-5.28-13,0-.34,0-.67,0-1,.31-6.62,3.64-12.05,8-13.57C224.28,129.42,227.62,134.85,227.93,141.47Z"/>
      <path d="M359.06,142.47c0,7.31-3.69,13.4-8.57,14.73a7.48,7.48,0,0,1-2,.27c-5.83,0-10.56-6.72-10.56-15s4.73-15,10.56-15a7.48,7.48,0,0,1,2,.27C355.37,129.07,359.06,135.16,359.06,142.47Z"/>
      <path d="M233,142.47c0,8.28-4.74,15-10.57,15a7.81,7.81,0,0,1-2.5-.42,9,9,0,0,1-2.79-1.59c-3.16-2.6-5.28-7.44-5.28-13,0-.34,0-.67,0-1,.31-6.62,3.64-12.05,8-13.57a7.81,7.81,0,0,1,2.5-.42c5.59,0,10.18,6.17,10.55,14C232.94,141.8,233,142.13,233,142.47Z"/>
    </g>
    <path class="cls-4" d="M291.74,432.25A75.47,75.47,0,0,0,297.81,454c14.14,30.53,47,41,55.85,43.47-13-15.53-17.07-33-10.26-43.42a20.33,20.33,0,0,1,7.69-6.79s4-19.1,2-35.28c-1.34-11.08-3.59-27.59-16.65-38.17-1.53-1.24-15.5-12.25-27.7-7.53C290.6,373.33,288.41,410.45,291.74,432.25Z"/>
    <path class="cls-9" d="M297.59,453.8q5,18.15,10,36.3l59.69,10.07a58.32,58.32,0,0,1-16.5-30.26,56.83,56.83,0,0,1,.29-22.85l-19.65-24.93Z"/>
    <path class="cls-4" d="M265.07,431.81A75.47,75.47,0,0,1,259,453.6c-14.14,30.53-47,41-55.85,43.47,13-15.53,17.07-33,10.26-43.42a20.33,20.33,0,0,0-7.69-6.79s-3.95-19.1-2-35.28c1.34-11.08,3.59-27.59,16.65-38.17,1.53-1.24,15.49-12.25,27.7-7.53C266.21,372.89,268.4,410,265.07,431.81Z"/>
    <path class="cls-9" d="M259.22,453.36q-5,18.15-10,36.3l-59.69,10.07A58.32,58.32,0,0,0,206,469.47a56.83,56.83,0,0,0-.29-22.85l19.64-24.93Z"/>
    <path class="cls-10" d="M296,331.84c-10.07-1.42-14.88-5.59-17.29-8.66l-.42-.56-14-46.12c10.07,1.42,14.88,5.59,17.29,8.66l.42.56Z"/>
  </g>
</svg>
