<svg xmlns="http://www.w3.org/2000/svg" xmlns:xlink="http://www.w3.org/1999/xlink" width="400mm" height="400mm" viewBox="0 0 1133.86 1133.86">
  <defs>
    <style>
      .cls-1 {
        fill: #fff;
        opacity: 0.11;
      }

      .cls-2 {
        opacity: 0.8;
      }

      .cls-3 {
        fill: #5ac0cc;
      }

      .cls-4, .cls-8 {
        isolation: isolate;
      }

      .cls-5 {
        mix-blend-mode: multiply;
        opacity: 0.75;
      }

      .cls-6 {
        fill: #5672b6;
      }

      .cls-7 {
        fill: #294797;
      }

      .cls-8 {
        fill: #944f15;
      }

      .cls-9 {
        fill: #edcda4;
      }

      .cls-10, .cls-13 {
        fill: none;
      }

      .cls-10, .cls-15 {
        stroke: #1d1d1b;
      }

      .cls-10, .cls-13, .cls-15 {
        stroke-miterlimit: 10;
      }

      .cls-10 {
        stroke-width: 2px;
      }

      .cls-11 {
        fill: #5db136;
      }

      .cls-12, .cls-15 {
        fill: #e6007e;
      }

      .cls-13 {
        stroke: #e6007e;
        stroke-width: 2.87px;
      }

      .cls-14 {
        fill: #1d1d1b;
      }

      .cls-15 {
        stroke-width: 1.56px;
      }
    </style>
  </defs>
  <g id="Layer_2" data-name="Layer 2">
    <g>
      <g>
        <path class="cls-1" d="M502.94,414.05q.39-98.55.25-197.11c0-4.08-5.74,1.91-5.8,2-2.35,2.47-4.57,5-6.69,7.71a9.29,9.29,0,0,0-2.67,4.69v98.9q0,19.78,0,39.57.27,14.68-.3,29.34-.36,14-1,27.94c-.15,4,5.69-1.28,5.92-1.48q3.78-3.39,7.24-7.1A9.2,9.2,0,0,0,502.94,414.05Z"/>
        <path class="cls-1" d="M505.61,405.9q.22-98.64.21-197.28c0-4.3-6.39,2-6.62,2.22q-4.44,4.09-8.55,8.5A12.68,12.68,0,0,0,487,224.5v98.9q0,19.78,0,39.57.29,14.59-.41,29.18Q486,406,485.49,419.8c-.16,4.17,6.26-1.18,6.76-1.55q4.77-3.62,9.23-7.59A12.37,12.37,0,0,0,505.61,405.9Z"/>
        <path class="cls-1" d="M507.54,412.76c.08-32.78.24-65.56.24-98.35q0-49.44,0-98.89c0-4.67-6.84,3.63-6.55,3.3q-4.16,4.89-8,10.06a14.21,14.21,0,0,0-3.3,5.88v98.9q0,19.79,0,39.56.3,14.64-.44,29.27-.53,14-1.14,27.9c-.19,4.57,6.92-2.89,6.76-2.74q4.5-4.51,8.66-9.33A14,14,0,0,0,507.54,412.76Z"/>
        <path class="cls-1" d="M516,416.47c-.2-32.67-.06-65.34-.05-98v-98.9a1.89,1.89,0,0,0-3-1.66,21.21,21.21,0,0,0-4.2,7.68c0,65.4.29,130.81-.26,196.22a1.91,1.91,0,0,0,2.91,1.87,14.5,14.5,0,0,0,2.7-3.34A14.66,14.66,0,0,0,516,416.47Z"/>
        <path class="cls-1" d="M514.32,411.72c.5-65.8.28-131.61.28-197.41a1.2,1.2,0,0,0-1.72-1.09,8.8,8.8,0,0,0-3.64,3.78q-2.85,4.06-5.31,8.38a8.87,8.87,0,0,0-1.87,4.92v98.9q0,19.77,0,39.56.24,14.7-.32,29.41-.35,14.07-1.06,28.14a1.21,1.21,0,0,0,1.62,1.23,8.54,8.54,0,0,0,3.9-3.39q3.14-3.73,5.89-7.76A8.6,8.6,0,0,0,514.32,411.72Z"/>
        <path class="cls-1" d="M502.45,401.59c-.35-32.72-.15-65.45-.15-98.16v-98.9A2.12,2.12,0,0,0,501,203a2.64,2.64,0,0,0-2.54.72c-1.67,1-4.83,3.08-4.83,5.31,0,65.32.24,130.64-.25,196a2.1,2.1,0,0,0,1.1,1.71,2.6,2.6,0,0,0,2.59-.39,23.52,23.52,0,0,0,3.91-2.49A2.63,2.63,0,0,0,502.45,401.59Z"/>
        <path class="cls-1" d="M499.34,411.13l.78-19.66q.17-14.78.12-29.54,0-24.72,0-49.45v-98.9a1.52,1.52,0,0,0-1.45-1.43,4.77,4.77,0,0,0-3.28,1.8,51.51,51.51,0,0,0-4.88,4.92,4.76,4.76,0,0,0-1.79,3.29V360.62q.18,14.73-.13,29.46a199.37,199.37,0,0,1-1.83,28.67,1.5,1.5,0,0,0,1.29,1.58,5,5,0,0,0,3.52-1.53,56.34,56.34,0,0,0,5.48-4.51A5,5,0,0,0,499.34,411.13Z"/>
        <path class="cls-1" d="M509,417.3c-.8-32.51-.4-65.07-.4-97.59v-98.9a2.12,2.12,0,0,0-2.85-1.95,12.3,12.3,0,0,0-3.77,5.49v98.9c0,32.32-.3,64.65.21,97a2.16,2.16,0,0,0,2.7,2.17,8.61,8.61,0,0,0,2.41-2.25A8.8,8.8,0,0,0,509,417.3Z"/>
        <path class="cls-1" d="M512.84,403.85c.37-65.81.25-131.62.25-197.43,0-1-.54-1.46-1.56-1.31a9.39,9.39,0,0,0-4.22,3.4c-2.31,2.53-4.5,5.14-6.57,7.86a9.31,9.31,0,0,0-2.6,4.76q0,49.44,0,98.9,0,19.77,0,39.55.27,14.66-.39,29.28-.44,13.88-1.09,27.74c-.17,4,5.64-1.17,5.91-1.39q3.78-3.33,7.25-7A9.06,9.06,0,0,0,512.84,403.85Z"/>
        <path class="cls-1" d="M502.18,415.91l.93-18.87q.09-14.78.05-29.56,0-24.74,0-49.46v-98.9a1.92,1.92,0,0,0-2.66-2.21,18.85,18.85,0,0,0-5.28,6.35v98.9q0,19.79,0,39.56.06,14.77,0,29.55a186.21,186.21,0,0,1-1.85,30.66,1.94,1.94,0,0,0,1.45,1.43,3,3,0,0,0,2.63-1.15C499.29,420.76,502.05,418.43,502.18,415.91Z"/>
        <path class="cls-1" d="M509.94,400.51c.54-65.81.27-131.62.27-197.43a1.36,1.36,0,0,0-1.41-1.46,6.06,6.06,0,0,0-3.73,2.15,67.65,67.65,0,0,0-5.76,5.6,6.08,6.08,0,0,0-2.25,3.66V351.49q.21,14.67-.25,29.34-.29,13.88-.87,27.75c-.11,3.3,4.23.56,5.12,0a68.81,68.81,0,0,0,6.27-4.75A5.93,5.93,0,0,0,509.94,400.51Z"/>
        <path class="cls-1" d="M501.19,403.91l-.69-18.68v.92c.19-59.35.07-118.71.07-178.06,0-1.26-.71-2.75-2.24-2.64a7.11,7.11,0,0,0-2.52,1.54,6.92,6.92,0,0,0-1.93,2.24V318c0,16.49,0,33,0,49.45l-.07,19.8q.14,9.36.73,18.69a2.87,2.87,0,0,0,1.14,1.69,1.72,1.72,0,0,0,2-.08C499.12,407,501.26,405.67,501.19,403.91Z"/>
      </g>
      <g class="cls-2">
        <g>
          <path class="cls-1" d="M310.75,701.83c.06-18.9.25-37.81.26-56.71q0-28.73,0-57.44,0-57.45,0-114.88,0-1.65-1.65-1.44a10,10,0,0,0-4.61,3.55q-3.8,4-7.22,8.29a10,10,0,0,0-2.89,5.06V603.13q0,28.73,0,57.45l0,19.12q-.54,18.09-1.31,36.17c-.17,4.31,6.14-1.38,6.39-1.6,2.71-2.43,5.32-5,7.8-7.65A9.85,9.85,0,0,0,310.75,701.83Z"/>
          <path class="cls-1" d="M313.64,693c0-38.1.2-76.21.2-114.31V463.84c0-4.63-6.88,2.14-7.14,2.37q-4.8,4.4-9.24,9.13a13.65,13.65,0,0,0-4,5.55q0,57.45,0,114.88c0,19.15.07,38.3,0,57.44l-.09,19.06Q292.62,690.14,292,708c-.17,4.49,6.73-1.27,7.28-1.68q5.13-3.89,9.95-8.17A13.3,13.3,0,0,0,313.64,693Z"/>
          <path class="cls-1" d="M315.72,700.42c0-18.95.22-37.89.23-56.84q0-28.71,0-57.44,0-57.43,0-114.87c0-5-7.37,3.89-7.07,3.54q-4.49,5.26-8.59,10.82a15.25,15.25,0,0,0-3.57,6.33q0,57.44,0,114.88c0,19.14.07,38.29,0,57.44l-.1,19.07q-.78,18-1.52,36.07c-.21,4.93,7.45-3.11,7.28-2.95q4.85-4.86,9.33-10.06A15,15,0,0,0,315.72,700.42Z"/>
          <path class="cls-1" d="M324.72,704.53c-.17-38,0-76,0-114V475.62a2,2,0,0,0-3.27-1.8,16.92,16.92,0,0,0-2.7,3.89,16.53,16.53,0,0,0-1.83,4.36V597c0,37.8.14,75.58-.37,113.37,0,1.8,1.45,2.94,3.14,2a16.48,16.48,0,0,0,2.94-3.65A16,16,0,0,0,324.72,704.53Z"/>
          <path class="cls-1" d="M323,699.31c.56-76.44.29-152.9.28-229.34a1.3,1.3,0,0,0-1.84-1.18,9.52,9.52,0,0,0-3.95,4.07q-3.08,4.36-5.74,9a9.54,9.54,0,0,0-2,5.29q0,57.44,0,114.88c0,19.15,0,38.29,0,57.44l-.05,19.11q-.48,18.23-1.37,36.45a1.31,1.31,0,0,0,1.75,1.32,9.18,9.18,0,0,0,4.2-3.65q3.38-4,6.35-8.37A9.2,9.2,0,0,0,323,699.31Z"/>
          <path class="cls-1" d="M310.13,688.45c-.31-38.05-.08-76.1-.08-114.15V459.42a2.28,2.28,0,0,0-1.38-1.7,2.84,2.84,0,0,0-2.75.76c-1.8,1.08-5.22,3.3-5.22,5.7V579.06c0,37.69.21,75.37-.41,113.06a2.29,2.29,0,0,0,1.18,1.85,2.85,2.85,0,0,0,2.82-.45,25.87,25.87,0,0,0,4.25-2.7A2.85,2.85,0,0,0,310.13,688.45Z"/>
          <path class="cls-1" d="M306.8,698.74q1.05-14.29,1-28.6.15-14.32.06-28.65,0-28.72,0-57.44V469.17a1.64,1.64,0,0,0-1.55-1.55,5.15,5.15,0,0,0-3.55,1.94,55.88,55.88,0,0,0-5.27,5.28,5.06,5.06,0,0,0-1.93,3.54q0,57.43,0,114.88,0,28.72,0,57.44v19.17a227.89,227.89,0,0,1-2.18,37.1,1.6,1.6,0,0,0,1.4,1.69,5.28,5.28,0,0,0,3.79-1.65,58.67,58.67,0,0,0,5.92-4.87A5.32,5.32,0,0,0,306.8,698.74Z"/>
          <path class="cls-1" d="M317.26,705.36q-.64-13.67-.44-27.33.07-14.37,0-28.74,0-28.72,0-57.44V477a2.29,2.29,0,0,0-3.07-2.11,13.29,13.29,0,0,0-4.07,5.9V595.64q0,28.71,0,57.44v19.15q-.35,18.09.29,36.17a2.35,2.35,0,0,0,2.9,2.35,9.25,9.25,0,0,0,2.56-2.39A9,9,0,0,0,317.26,705.36Z"/>
          <path class="cls-1" d="M321.43,690.82c.36-76.45.26-152.9.25-229.35,0-1.11-.59-1.58-1.68-1.42a10.1,10.1,0,0,0-4.56,3.65q-3.75,4.07-7.11,8.45a10,10,0,0,0-2.82,5.11q0,57.45,0,114.88c0,19.15.06,38.29,0,57.43l-.09,19.08q-.65,18-1.43,35.91c-.17,4.27,6.08-1.26,6.37-1.5q4.08-3.59,7.81-7.52A9.75,9.75,0,0,0,321.43,690.82Z"/>
          <path class="cls-1" d="M309.71,704.06A219.22,219.22,0,0,0,311,676.12q0-14.32,0-28.66,0-28.71,0-57.43V475.15a2.07,2.07,0,0,0-2.87-2.39,19.95,19.95,0,0,0-5.69,6.82q0,57.44,0,114.88,0,28.71,0,57.44l0,19.18a185.51,185.51,0,0,1-2.18,38.32,2.4,2.4,0,0,0,.43,2.21c.94.93,2.1.5,3-.15a22.18,22.18,0,0,0,3.81-3.5C308.64,706.74,309.6,705.75,309.71,704.06Z"/>
          <path class="cls-1" d="M318.3,687.23c.61-76.45.28-152.91.28-229.37a1.48,1.48,0,0,0-1.53-1.58,6.58,6.58,0,0,0-4,2.31,75.15,75.15,0,0,0-6.23,6,6.59,6.59,0,0,0-2.44,3.94q0,57.43,0,114.87,0,28.73,0,57.44l0,19.12q-.4,18-1.12,35.95c-.12,3.57,4.56.61,5.52,0a73,73,0,0,0,6.75-5.12A6.38,6.38,0,0,0,318.3,687.23Z"/>
          <path class="cls-1" d="M308.85,690.92l-.76-18,0,1c.31-70.21.09-140.43.08-210.65,0-1.36-.75-3-2.41-2.85a7.47,7.47,0,0,0-2.71,1.64,7.67,7.67,0,0,0-2.09,2.41q0,62.22,0,124.45,0,28.71,0,57.44,0,14.35-.09,28.72.09,9,.9,18a3.12,3.12,0,0,0,1.23,1.82,1.8,1.8,0,0,0,2.12-.06C306.69,694.16,308.93,692.79,308.85,690.92Z"/>
        </g>
      </g>
      <g>
        <path class="cls-1" d="M459.83,442.27c.27-45.24.17-90.49.17-135.74,0-2.32-3.26,1.08-3.3,1.12-1.34,1.4-2.6,2.86-3.81,4.37a5.41,5.41,0,0,0-1.52,2.67c0,45,.55,90-.72,135-.06,2.26,3.21-.7,3.37-.83,1.43-1.28,2.79-2.62,4.1-4A5.18,5.18,0,0,0,459.83,442.27Z"/>
        <path class="cls-1" d="M461.33,437.65c.26-45.28.17-90.57.17-135.85,0-2.44-3.63,1.13-3.77,1.26q-2.52,2.31-4.87,4.82a7.09,7.09,0,0,0-2.1,2.93c0,44.91.58,89.87-.89,134.76-.08,2.37,3.54-.66,3.85-.88,1.8-1.38,3.56-2.82,5.26-4.33A7.14,7.14,0,0,0,461.33,437.65Z"/>
        <path class="cls-1" d="M462.42,441.57c.29-45.29.19-90.57.19-135.85,0-2.66-3.89,2.06-3.73,1.87-1.58,1.85-3.09,3.76-4.53,5.71a8.23,8.23,0,0,0-1.88,3.34c0,45,.62,90-.94,135-.09,2.59,3.92-1.63,3.85-1.56,1.7-1.71,3.35-3.48,4.93-5.31A8,8,0,0,0,462.42,441.57Z"/>
        <path class="cls-1" d="M467.22,443.69q0-67.83,0-135.68a1.07,1.07,0,0,0-1.72-.94,8.58,8.58,0,0,0-1.43,2.05,8.68,8.68,0,0,0-1,2.31c0,45.06.17,90.14-.14,135.21a1.08,1.08,0,0,0,1.65,1.06,7.75,7.75,0,0,0,1.51-1.86A7.89,7.89,0,0,0,467.22,443.69Z"/>
        <path class="cls-1" d="M466.31,441c.33-45.3.18-90.61.18-135.92a.69.69,0,0,0-1-.62,5,5,0,0,0-2.07,2.15q-1.62,2.31-3,4.76a5.06,5.06,0,0,0-1.06,2.79v68.05q0,14.58,0,29.17,0,19-.81,37.93a.69.69,0,0,0,.92.7,4.83,4.83,0,0,0,2.22-1.93,55.16,55.16,0,0,0,3.35-4.42A4.8,4.8,0,0,0,466.31,441Z"/>
        <path class="cls-1" d="M459.57,435.17c-.18-45.23-.07-90.47-.08-135.7,0-1.34-1.59-.85-2.17-.49-.95.57-2.75,1.74-2.75,3q0,67.5,0,135C454.54,439.52,459.57,436.69,459.57,435.17Z"/>
        <path class="cls-1" d="M458,440.44c.7-45.26.34-90.56.33-135.83,0-1.8-2.35-.07-2.69.21a31.83,31.83,0,0,0-2.78,2.79,2.7,2.7,0,0,0-1,1.87v68q0,14.6,0,29.18.27,19-.85,38c-.07,1.79,2.26.35,2.71.05a31.13,31.13,0,0,0,3.08-2.53A2.79,2.79,0,0,0,458,440.44Z"/>
        <path class="cls-1" d="M463,444.42c.12-45.23,0-90.46,0-135.69a1.21,1.21,0,0,0-1.62-1.12,5.12,5.12,0,0,0-2.14,3.12c0,45.1.19,90.21-.11,135.31a1.23,1.23,0,0,0,1.53,1.23A4.83,4.83,0,0,0,463,444.42Z"/>
        <path class="cls-1" d="M465.46,436.48c.29-45.31.17-90.62.17-135.93,0-2.34-3.28,1.18-3.29,1.18q-2,2.14-3.74,4.46a5.32,5.32,0,0,0-1.48,2.7c0,44.95.62,89.95-.91,134.88-.08,2.26,3.2-.67,3.37-.8q2.16-1.91,4.14-4A5.19,5.19,0,0,0,465.46,436.48Z"/>
        <path class="cls-1" d="M460,442.69c-.13-45,0-89.95,0-134.92,0-.88-.51-1.64-1.51-1.26a7.74,7.74,0,0,0-1.7,1.63,7.57,7.57,0,0,0-1.3,2c0,45.24.22,90.49-.17,135.72,0,1.41,1.81.56,2.24.23C458.52,445.31,460,444,460,442.69Z"/>
        <path class="cls-1" d="M463.82,434.56c.32-45.3.18-90.61.18-135.91,0-2-2.61.12-2.93.38a41,41,0,0,0-3.28,3.18,3.41,3.41,0,0,0-1.28,2.08c0,44.95.52,89.94-.67,134.87,0,1.88,2.4.32,2.92,0a37.25,37.25,0,0,0,3.57-2.71A3.3,3.3,0,0,0,463.82,434.56Z"/>
        <path class="cls-1" d="M458.58,436.67c-.14-45.05-.06-90.11-.06-135.17,0-.71-.4-1.58-1.27-1.51-.65.06-2.53,1.43-2.53,2.14,0,45.23-.13,90.46.1,135.69C454.83,440.07,458.58,438.19,458.58,436.67Z"/>
      </g>
      <path class="cls-3" d="M753.64,787.55c-11.66,3.57-22.89,6.55-33.63,9l-.18,0V764.1l.34.22Q736.36,775.11,753.64,787.55Z"/>
      <g class="cls-4">
        <image class="cls-5" width="9296" height="7362" transform="translate(-542.86 -237.3) scale(0.24)" xlink:href="pelle_some1.png"/>
        <path class="cls-6" d="M1291.35-14.16V-201.61h-1733v100.37h-67V1228.47h296.54v251.32H198.05v-93.44H719.83v4.89h917.09V-14.16ZM711.18,464.28A466,466,0,0,1,660,486c-5.87,2.09-11.68,4-17.39,5.78a421,421,0,0,1-79.53,16.53c-.61.07-1.2.13-1.81.18-.36.05-.71.08-1.06.11l-1.54.15-1.45.12c-1.63.17-3.27.31-4.9.45-.37.05-.76.07-1.13.1-3.93-.29-7.91-.67-11.88-1.11a423.84,423.84,0,0,1-95.06-21.65c-2.19-.77-4.37-1.54-6.56-2.36-1.24-.45-2.46-.91-3.66-1.36l-1.78-.68c-1.48-.56-2.91-1.1-4.3-1.67-13.86-5.42-24.21-10.23-29.71-12.91l-1-.5-.64-.3c-10.13-5-18.6-9.67-25.06-13.44,2.65-16.49,11-52.44,41.26-79,44.46-39,117.93-41.58,181.29-3.71,8.22-2.36,47.42-12.7,80.88,9.42a81.61,81.61,0,0,1,24.68,26C712.84,428.14,712.84,450.76,711.18,464.28Z"/>
      </g>
      <path class="cls-7" d="M1636.92,1228c-295.2-250.86-537.54-304.63-708.81-304.29-270.39.53-394.42,131.36-608.52,53.7C116,903.58,117.25,733.57-92,643.34c-183.55-79.12-380.42-31.66-514.77,18.59l10.47,579.52Z"/>
      <g>
        <path class="cls-8" d="M721.38,466.55A496.89,496.89,0,0,1,667.1,489.6q-9.35,3.31-18.44,6.12a445.54,445.54,0,0,1-84.32,17.53c-.64.07-1.27.14-1.92.19-.37,0-.75.08-1.12.12-.54.05-1.09.12-1.63.15l-1.53.14c-1.74.17-3.47.32-5.21.47-.39,0-.8.07-1.19.1-4.16-.3-8.38-.71-12.6-1.17a449.62,449.62,0,0,1-100.78-23c-2.31-.81-4.62-1.63-6.95-2.5-1.31-.47-2.61-1-3.88-1.44l-1.89-.72c-1.56-.59-3.08-1.17-4.56-1.77-14.69-5.74-25.66-10.85-31.49-13.69-.4-.18-.77-.35-1.11-.52l-.68-.33c-10.73-5.29-19.71-10.25-26.56-14.25,2.8-17.48,11.66-55.59,43.74-83.72,47.14-41.33,125-44.08,192.2-3.93,8.71-2.5,50.27-13.47,85.75,10A86.4,86.4,0,0,1,709.08,405C723.13,428.24,723.13,452.22,721.38,466.55Z"/>
        <path class="cls-7" d="M688.65,710.86h0a72,72,0,0,1-.11,13.25,60.35,60.35,0,0,1-1.07,7c-5.13,25.3-22.54,51.12-22.54,51.12C643.65,813.79,633,829.57,619,837c-20.31,10.75-43.12,11.36-68.79,12a112.1,112.1,0,0,1-46.77-8.57c-25.69-10.55-45.21-28.81-57.8-43.49h0a183.57,183.57,0,0,1-12.82-16.77H433A142.21,142.21,0,0,1,414.46,728a132.77,132.77,0,0,1-.75-30.56A75.62,75.62,0,0,1,435,656.87c55.78-56.13,200.59-47.34,241.93,7.44C688,678.88,690.47,695.18,688.65,710.86Z"/>
        <path class="cls-9" d="M535.77,949a23,23,0,0,1-23,23h-.19a23,23,0,1,1,23.23-23Z"/>
        <path class="cls-9" d="M461,529.91c0,11.32-5.52,20.82-13,23.39a14.43,14.43,0,0,1-4.47-2.55c-5.07-4.17-8.47-11.94-8.47-20.84,0-.55,0-1.08,0-1.61.5-10.61,5.84-19.32,12.91-21.76,7.06,2.44,12.42,11.15,12.91,21.76C461,528.83,461,529.36,461,529.91Z"/>
        <path class="cls-9" d="M642.59,491.79a420.27,420.27,0,0,1-79.53,16.54c-.61.07-1.2.13-1.81.18-1.35.14-2.7.27-4,.38-1.63.17-3.27.31-4.9.45-.37.05-.76.07-1.13.1-3.93-.29-7.91-.67-11.88-1.11a423.84,423.84,0,0,1-95.06-21.65,601.75,601.75,0,0,0,69.07-14.2,597.5,597.5,0,0,0,70.58-23.66A211.63,211.63,0,0,0,615.82,476,208.84,208.84,0,0,0,642.59,491.79Z"/>
        <path class="cls-9" d="M671.35,529.91c0,11.73-5.92,21.49-13.74,23.63-7.83-2.14-13.74-11.9-13.74-23.63s5.91-21.48,13.74-23.61C665.43,508.41,671.35,518.18,671.35,529.91Z"/>
        <path class="cls-9" d="M697.84,576.57c-.52,3.19-1.14,6.43-1.88,9.76-.13.61-.27,1.21-.42,1.82-1.76,7.54-6,25.61-14.71,39.87-15.75,25.74-45.39,37.84-72.66,43.55h0c-22.76,4.78-43.84,5.12-53.8,5.28-7.57.12-35.26.57-64.17-5.92h0c-27.46-6.13-56-18.53-69.44-43.38-6-11.07-8.73-24.17-11.53-37.47,0-.1-.05-.19-.07-.29q-1.44-7-2.45-13.19h.82c.41.07.83.13,1.25.18,2.23.32,4.46.61,6.69.85l.11,0c43.81,4.79,114.82-11.52,114.82-11.52,2-.4,5.09-1.09,8.9-2.12,7.86-2.12,8.65-3,11.92-3s4.06.89,11.92,3c3.82,1,6.93,1.7,8.89,2.1,0,0,71.16,16.35,114.95,11.5q3-.32,5.9-.75c.26,0,.52-.07.77-.1.44,0,.85-.11,1.27-.18C695.88,576.62,696.87,576.6,697.84,576.57Z"/>
        <path class="cls-10" d="M556.7,572.92a9.44,9.44,0,0,1,4.56,7.28,9,9,0,0,1-4.56,8.24"/>
        <path class="cls-10" d="M540.84,572.94a9.47,9.47,0,0,0-4.56,7.27,9,9,0,0,0,4.56,8.24"/>
        <path class="cls-9" d="M732.89,576.41c0,9.5-8.24,17.18-18.41,17.18a18.77,18.77,0,0,1-15.29-7.6,16.27,16.27,0,0,1-3.13-9.45c.26,0,.52-.06.77-.09.44-.05.85-.12,1.27-.18,1,0,2,0,3,0a58.6,58.6,0,0,0,25-6,46.38,46.38,0,0,0,4.34-2.45A16.16,16.16,0,0,1,732.89,576.41Z"/>
        <path class="cls-9" d="M415.53,577.65a16.72,16.72,0,0,1-6.42,12.14,19.13,19.13,0,0,1-12,4.14c-10.17,0-18.42-7.68-18.42-17.18a16.29,16.29,0,0,1,1.16-6,59.64,59.64,0,0,0,26.79,5.87h.82c.41.07.83.13,1.25.18,2.23.32,4.46.61,6.69.85Z"/>
        <path class="cls-11" d="M657.61,506.3c-7.83,2.13-13.74,11.88-13.74,23.61s5.91,21.49,13.74,23.63c7.82-2.14,13.74-11.9,13.74-23.63S665.43,508.41,657.61,506.3ZM461,528.3c-.59,12.55-7.95,22.46-16.92,22.46h-.46a14.43,14.43,0,0,0,4.47,2.55c7.43-2.57,13-12.07,13-23.39C461,529.36,461,528.83,461,528.3Z"/>
        <path class="cls-11" d="M398.22,467.7c5.5,2.68,15.85,7.49,29.71,12.91Q413.37,474.86,398.22,467.7ZM469,528.3c-.6-12.54-8-22.44-16.93-22.44a12.32,12.32,0,0,0-4,.68c7.06,2.44,12.42,11.15,12.91,21.76,0,.53,0,1.06,0,1.61,0,11.32-5.52,20.82-13,23.39a12.59,12.59,0,0,0,4,.67c9.35,0,17-10.78,17-24.06C469.06,529.36,469,528.83,469,528.3Zm174.84,1.61c0-11.73,5.91-21.48,13.74-23.61a12,12,0,0,0-3.21-.44c-9.35,0-16.94,10.77-16.94,24S645.05,554,654.4,554a12,12,0,0,0,3.21-.43C649.78,551.4,643.87,541.64,643.87,529.91Z"/>
        <path class="cls-12" d="M764.34,450.1q-.8-7.35-2-15l-3.89,2.49a517.17,517.17,0,0,1-47.24,26.64A466,466,0,0,1,660,486c-5.87,2.09-11.68,4-17.39,5.77a420.27,420.27,0,0,1-79.53,16.54c-.61.07-1.2.13-1.81.18-.36.05-.71.08-1.06.11l-1.54.15c-2.14.22-4.25.41-6.35.57-.37.05-.76.07-1.13.1-3.93-.29-7.91-.67-11.88-1.11a423.84,423.84,0,0,1-95.06-21.65c-2.19-.77-4.37-1.54-6.56-2.36-1.24-.45-2.46-.91-3.66-1.36l-1.78-.68c-1.48-.56-2.91-1.1-4.3-1.67-13.86-5.42-24.21-10.23-29.71-12.91l-1-.5-.64-.3A513.82,513.82,0,0,1,346.15,439c-2-1.27-4.07-2.57-6.11-3.89-1,6.21-1.81,12.34-2.36,18.34-5,55.73,10.72,101.47,41.84,117.07l.35.17a59.64,59.64,0,0,0,26.79,5.87h.82c.41.07.83.13,1.25.18,2.23.32,4.46.61,6.69.85l.11,0c43.81,4.79,114.82-11.52,114.82-11.52,2-.4,5.09-1.09,8.9-2.12,7.86-2.12,8.65-3,11.92-3s4.06.89,11.92,3c3.82,1,6.93,1.7,8.89,2.1,0,0,71.16,16.35,114.95,11.5q3-.32,5.9-.75c.26,0,.52-.07.77-.1.44,0,.85-.11,1.27-.18,1,0,2,0,3,0a58.52,58.52,0,0,0,25-6,46.63,46.63,0,0,0,4.35-2.46C756,550.2,770.05,504.68,764.34,450.1ZM452.1,554a12.59,12.59,0,0,1-4-.67,14.43,14.43,0,0,1-4.47-2.55c-5.07-4.17-8.47-11.94-8.47-20.84,0-.55,0-1.08,0-1.61.5-10.61,5.84-19.32,12.91-21.76a12.32,12.32,0,0,1,4-.68c9,0,16.33,9.9,16.93,22.44,0,.53,0,1.06,0,1.61C469.06,543.19,461.45,554,452.1,554Zm202.3,0c-9.35,0-16.94-10.78-16.94-24.06s7.59-24,16.94-24a12,12,0,0,1,3.21.44c7.82,2.11,13.74,11.88,13.74,23.61s-5.92,21.49-13.74,23.63A12,12,0,0,1,654.4,554Z"/>
        <path d="M671.35,529.91c0,11.73-5.92,21.49-13.74,23.63a12,12,0,0,1-3.21.43c-9.35,0-16.94-10.78-16.94-24.06s7.59-24,16.94-24a12,12,0,0,1,3.21.44C665.43,508.41,671.35,518.18,671.35,529.91Z"/>
        <path d="M469.06,529.91c0,13.28-7.61,24.06-17,24.06a12.59,12.59,0,0,1-4-.67,14.43,14.43,0,0,1-4.47-2.55c-5.07-4.17-8.47-11.94-8.47-20.84,0-.55,0-1.08,0-1.61.5-10.61,5.84-19.32,12.91-21.76a12.32,12.32,0,0,1,4-.68c9,0,16.33,9.9,16.93,22.44C469,528.83,469.06,529.36,469.06,529.91Z"/>
        <path class="cls-13" d="M576.76,755.83c-15.82.55-23.54-3.74-27.43-7.17-.24-.21-.47-.41-.69-.63l-24-56.84c15.82-.55,23.54,3.74,27.43,7.17q.36.3.69.63Z"/>
        <path class="cls-14" d="M651.55,865.49c0,1.37,0,2.74-.08,4.12,0,.48-.05,1-.07,1.48s-.07,1.24-.12,1.87-.08,1.24-.13,1.88-.12,1.25-.18,1.88-.13,1.26-.21,1.88-.15,1.26-.24,1.9q-.22,1.68-.48,3.36-.69,4.23-1.67,8.48l-1.42-.2a113.05,113.05,0,0,1-50.27-20,99.63,99.63,0,0,1-23.63,13.63,95.8,95.8,0,0,1-22.87,6.16,93.65,93.65,0,0,1-2.25-9.49,103.09,103.09,0,0,1-2.06-20.25,11.42,11.42,0,0,0,.46-1.94.85.85,0,0,1-.35,0h-.06c.06-2.21.16-4.42.36-6.57a85.12,85.12,0,0,1,2.26-12.45c.51-2,1.13-4,1.79-6,.35-1,.73-2,1.13-3,.13-.33.27-.66.41-1,.41-1,.86-2,1.33-3,.15-.34.31-.67.47-1l.5-1c.51-1,1.05-2,1.6-3.06s1-1.8,1.52-2.7c.42-.71.85-1.42,1.28-2.12s.95-1.5,1.45-2.24.78-1.17,1.19-1.75a3.46,3.46,0,0,1,.22-.31q1.38-2,2.89-3.89c.52-.66,1-1.31,1.58-1.95s1.2-1.41,1.82-2.1,1-1.11,1.52-1.64c.29-.33.6-.64.9-.94l.85-.85.81-.78c.27-.27.54-.52.82-.77l.82-.75c.56-.51,1.12-1,1.7-1.46l.86-.71c.22-.19.46-.37.69-.55.91-.72,1.84-1.39,2.78-2,0,0,0,0,0,0,.6-.41,1.2-.81,1.81-1.18,0,0,0,0,0,0,.58-.36,1.19-.72,1.79-1.06l.92-.51c.39-.21.79-.42,1.19-.61.9-.46,1.8-.87,2.73-1.24.42-.18.86-.34,1.29-.5s.68-.25,1-.36.66-.23,1-.33a4.61,4.61,0,0,1,.46-.13l1-.28a29.18,29.18,0,0,1,2.89-.62l.91-.14c.36,0,.71-.09,1.07-.12l.69-.07.47,0a8.1,8.1,0,0,1,1,0c.35,0,.71,0,1.07,0a30.11,30.11,0,0,1,3.41.19c.7.07,1.39.19,2.06.31.31.06.61.11.91.19a27.51,27.51,0,0,1,4.32,1.27c.3.11.6.22.89.35a35,35,0,0,1,6.6,3.54,6.9,6.9,0,0,1,.63.42l.43.31c.44.3.86.63,1.28,1s1,.79,1.52,1.24l.79.67c.84.73,1.65,1.49,2.43,2.29.22.21.43.41.63.64s.45.46.67.7c.4.42.8.87,1.18,1.3s.94,1.08,1.37,1.62c.69.81,1.35,1.65,2,2.5,9.78,13,14.8,28.4,15.43,30.41.19.63.38,1.28.57,1.93s.36,1.28.52,1.93c.23.84.44,1.67.63,2.52.09.42.19.85.28,1.28s.18.85.26,1.27c.15.75.3,1.5.43,2.25a.36.36,0,0,1,0,.11c.13.76.25,1.51.36,2.27.08.43.14.88.19,1.32q.48,3.55.7,7.15c0,.51.06,1,.09,1.53s0,1.25.06,1.86v.19C651.53,863.72,651.55,864.61,651.55,865.49Z"/>
        <path class="cls-15" d="M648.37,892.34c-.29,1.21-.59,2.42-.91,3.62-.26,1-.53,1.94-.8,2.9s-.5,1.7-.76,2.56c-.75,2.42-1.56,4.85-2.44,7.27-.33.86-.65,1.73-1,2.59-1.07,2.79-2.23,5.56-3.47,8.33-.28.58-.54,1.17-.81,1.75-1.05,2.26-2.15,4.49-3.32,6.72-.56,1.07-1.13,2.14-1.71,3.2-.48.88-1,1.75-1.46,2.62s-1.13,2-1.72,3c-.46.78-.93,1.57-1.42,2.35-.23.4-.48.79-.73,1.18l-.74,1.18c-.41.64-.83,1.29-1.26,1.94a3.4,3.4,0,0,1-.28.45c-1.25,1.92-2.56,3.83-3.89,5.72s-2.75,3.84-4.2,5.73-2.93,3.78-4.46,5.64c-.63.77-1.25,1.52-1.9,2.28-.26.32-.53.63-.81,1l-1.8,2.08-1.65,1.84c-.88,1-1.78,2-2.72,3-.06.09-.15.16-.22.25l-.55.58-.65-.58c-1-.86-1.93-1.74-2.89-2.61s-1.83-1.68-2.73-2.54l-2.45-2.39c-.7-.69-1.4-1.37-2.06-2.07a.62.62,0,0,1-.14-.14c-.33-.34-.67-.68-1-1-.53-.52-1-1.06-1.54-1.6-.35-.37-.69-.73-1-1.11-.85-.89-1.68-1.8-2.51-2.72-1.64-1.84-3.24-3.68-4.78-5.55-15.26-18.37-25.92-38.31-31.4-57.8a95.8,95.8,0,0,0,22.87-6.16,99.63,99.63,0,0,0,23.63-13.63,113.05,113.05,0,0,0,50.27,20Z"/>
        <path class="cls-14" d="M481.41,941.66a196.53,196.53,0,0,0-6.11-20.56c-1.55-4.27-2.86-7.22-3.41-8.78-3.53-9.57-6.11-18.42-13.65-41.43-7-21.23-8.94-26.29-14.36-43.87-.54-1.77-2.87-8.85-5.37-17.59-.18-.61-.34-1.19-.5-1.72-.59-2.13-1-3.69-1-3.89-.41-1.63-3.06-10.52-10.15-33.69l1.37,1.22c11,9.74,17.47,15.5,22.46,19.41A98.7,98.7,0,0,0,475,805.27a87.89,87.89,0,0,0,23.82,6c7,19.35,11.85,35.45,15.09,47.33,3.76,13.79,6.74,26.7,13.37,46.54,2.29,6.84,6.69,18.06,9.21,24.78a35.32,35.32,0,0,1,1.88,5.53.15.15,0,0,1-.05-.09,9.52,9.52,0,0,0-.94-1.89c-.08-.23-.2-.41-.3-.63s-.25-.43-.39-.68-.3-.45-.43-.7-.31-.52-.49-.79-.34-.47-.56-.78-.45-.59-.73-1a18.61,18.61,0,0,0-1.28-1.54c-.52-.57-1.09-1.13-1.71-1.71-.33-.3-.65-.61-.94-.89a3.49,3.49,0,0,1-.53-.42,11.64,11.64,0,0,0-1.81-1.34,28.2,28.2,0,0,0-19.09-5.12,28.93,28.93,0,0,0-6.36,1.32l-.32.09c-.3.11-.65.24-1.1.43a21.65,21.65,0,0,0-3.2,1.44l-1,.6a1.34,1.34,0,0,0-.32.14c-.49.29-1,.62-1.42.92a21.71,21.71,0,0,0-2,1.47,36,36,0,0,0-9,10.9l-.46.85c-.14.26-.27.52-.4.79-.21.43-.41.84-.59,1.24s-.31.68-.45,1-.2.47-.29.69C481.87,940.43,481.63,941.08,481.41,941.66Z"/>
        <path class="cls-9" d="M497.32,973.84a30.56,30.56,0,0,1-3.37-2.27c-.71-.55-1.4-1.13-2.06-1.75l-.73-.71c-.18-.17-.36-.36-.52-.54a21.48,21.48,0,0,1-1.54-1.74,27.14,27.14,0,0,1-1.64-2.19c-.51-.76-1-1.55-1.45-2.37a30.71,30.71,0,0,1-2.26-5.21,30,30,0,0,1-.69-16.12,25.56,25.56,0,0,1,.69-2.5c.14-.44.3-.87.46-1.29s.32-.83.5-1.23l.29-.64.36-.74A30.11,30.11,0,0,1,503,919.16a30.81,30.81,0,0,1,6.07-1.31,29.17,29.17,0,0,1,20.34,5.29,12.1,12.1,0,0,1,1.87,1.35,17.24,17.24,0,0,1,1.55,1.35,30.34,30.34,0,0,1,3.61,4,29.58,29.58,0,0,1,4.48,8.65,30.16,30.16,0,0,1-19.34,38c-.52.18-1.06.33-1.59.46l-.22.06c-.42.11-.83.21-1.24.28l-.13,0-1.08.2h-.06l-.59.1c-.73.1-1.46.19-2.17.22-.42,0-.82,0-1.24.06a4.56,4.56,0,0,1-.52,0h-.48c-.21,0-.41,0-.61,0a4.52,4.52,0,0,1-.64,0c-.6,0-1.2-.07-1.79-.14a4.52,4.52,0,0,1-.53-.06c-.48-.05-1-.12-1.42-.21s-.7-.12-1-.21a.49.49,0,0,1-.21,0c-.22,0-.43-.1-.64-.15s-.69-.16-1-.26-.85-.25-1.26-.38a.19.19,0,0,1-.08,0,.49.49,0,0,1-.17-.06,1.34,1.34,0,0,1-.26-.09c-.3-.1-.59-.2-.89-.32s-.75-.29-1.12-.46-.55-.24-.83-.36l-.11,0,0,0-1.05-.51C498.15,974.31,497.73,974.08,497.32,973.84Z"/>
        <path class="cls-14" d="M807.05,648.69a198.23,198.23,0,0,1-21.43,1c-4.54-.07-7.76-.34-9.41-.35-10.2-.2-19.41.27-43.62.7-22.35.35-27.76.18-46.15.82-1.85.07-9.3.19-18.38.7l-1.79.1c-1.67.1-3,.19-4,.3l-.19,0c10,9.6,18.36,21.13,23.17,35.11a83.94,83.94,0,0,1,4.29,20.82c20.59.3,37.38-.43,49.67-1.27,14.26-1,27.43-2.38,48.34-2.64,7.22-.08,19.27.4,26.43.58a35.6,35.6,0,0,0,5.84,0,.12.12,0,0,0-.1,0,10.13,10.13,0,0,1-2.09-.26c-.24,0-.45-.06-.69-.08l-.77-.15c-.28,0-.52-.14-.8-.18s-.6-.12-.91-.2-.56-.17-.92-.28l-1.16-.36a17,17,0,0,1-1.88-.71c-.71-.3-1.43-.65-2.18-1-.39-.22-.79-.42-1.14-.6a3.17,3.17,0,0,0-.58-.37,11.6,11.6,0,0,1-1.86-1.27,28.61,28.61,0,0,1-11.93-22.79l0-.33c0-.32,0-.7.05-1.18a22.1,22.1,0,0,1,.31-3.5c.08-.38.15-.77.23-1.15a1.29,1.29,0,0,1,0-.35c.1-.56.26-1.12.4-1.64a19.55,19.55,0,0,1,.74-2.36,35.7,35.7,0,0,1,7.33-12.1c.22-.25.44-.48.66-.71s.4-.44.61-.64.66-.66,1-1,.53-.52.8-.76.38-.35.56-.5C806,649.53,806.57,649.09,807.05,648.69Z"/>
        <path class="cls-9" d="M842.67,653.16a31.94,31.94,0,0,0-3.25-2.43c-.76-.5-1.53-1-2.33-1.38l-.92-.46c-.21-.11-.45-.21-.67-.31-.7-.33-1.41-.62-2.15-.89s-1.73-.59-2.61-.83-1.8-.44-2.71-.58a30.42,30.42,0,0,0-5.67-.43,30,30,0,0,0-15.45,4.63c-.75.47-1.46,1-2.14,1.47-.36.28-.72.57-1.06.86s-.69.58-1,.88l-.5.48c-.2.19-.4.39-.59.59a30.15,30.15,0,0,0-8.73,21.73,31,31,0,0,0,.76,6.16,29.17,29.17,0,0,0,11.66,17.48,12.66,12.66,0,0,0,1.89,1.32,16.3,16.3,0,0,0,1.79,1,30.54,30.54,0,0,0,5,2.09,30.1,30.1,0,0,0,39.18-29.33c0-.55,0-1.11-.1-1.65a.87.87,0,0,0,0-.23c0-.44-.08-.86-.14-1.27,0-.05,0-.08,0-.13,0-.36-.1-.73-.17-1.09,0,0,0,0,0-.05,0-.2-.06-.4-.1-.59a21.32,21.32,0,0,0-.51-2.13c-.1-.4-.22-.79-.35-1.18a2.44,2.44,0,0,0-.16-.5,3.53,3.53,0,0,0-.15-.46l-.21-.56c-.07-.22-.15-.41-.23-.61-.22-.56-.46-1.11-.72-1.64a3.58,3.58,0,0,0-.24-.48,13.85,13.85,0,0,0-.66-1.27c-.17-.32-.34-.62-.53-.91a.77.77,0,0,0-.1-.18l-.37-.56a10.17,10.17,0,0,0-.57-.88c-.25-.37-.52-.72-.78-1.07a.1.1,0,0,0,0-.06.58.58,0,0,0-.11-.15l-.17-.22c-.19-.24-.39-.49-.6-.73s-.51-.61-.8-.91-.4-.44-.61-.66l-.09-.09,0,0c-.27-.28-.55-.55-.83-.82S843,653.47,842.67,653.16Z"/>
        <path class="cls-14" d="M345.45,842.76A344.26,344.26,0,0,1,390,817.65,159.16,159.16,0,0,1,409.26,810v0a87.2,87.2,0,0,1,32.21-4.49c2.25.18,20,1.61,34.28,11.59.45.31.89.63,1.32.95a39.82,39.82,0,0,1,15.58,23.75,43.69,43.69,0,0,1,.88,5.88c1.43,15.54-4.64,32.86-15.88,46.55a72.75,72.75,0,0,1-7.7,8.11c-12.51,11.24-26.85,16.2-47.33,19.29l-41.42-42.34-4.35-4.44-28.53-29.19Z"/>
        <path class="cls-15" d="M232.68,938.81c4.39-4.57,9.93-10.27,16.45-16.74,17.88-17.57,43.12-40.82,72.05-62.34,1.72-1.33,3.46-2.62,5.27-3.91,6.19-4.49,12.49-8.88,19-13.06l2.88,2.9,28.53,29.19,4.35,4.44,41.42,42.34c-7.26,1.08-15.33,1.92-24.37,2.71-7,.59-14.66,1.18-23,1.81-16.62,1.35-38.63,3.14-65.45,5.49l-9.48.85c-4.19.37-8.5.75-12.9,1.18-3.55.31-7.15.61-10.82,1C262.87,935.88,248.25,937.33,232.68,938.81Z"/>
      </g>
      <path class="cls-7" d="M-562.65-67.3C-524.18-17.58-459.15,50.53-361,84.64c192.08,66.72,299.88-70.33,543.21-51.58C411,50.68,394.74,177.65,645.53,206.59c255.84,29.53,359.33-92.61,502.63-7.69C1262.67,266.76,1253.48,389,1372,427.51c82.11,26.69,167.63-4.2,228.34-35.58q-1.36-288.79-2.74-577.6Z"/>
    </g>
  </g>
</svg>
