<svg id="Layer_1" data-name="Layer 1" xmlns="http://www.w3.org/2000/svg" width="86mm" height="86mm" viewBox="0 0 243.78 243.78">
  <defs>
    <style>
      .cls-1 {
        fill: none;
      }

      .cls-1, .cls-2, .cls-3 {
        stroke: #e84b14;
        stroke-miterlimit: 10;
      }

      .cls-1, .cls-2 {
        stroke-width: 2px;
      }

      .cls-2, .cls-3 {
        fill: #e84b14;
      }
    </style>
  </defs>
  <g>
    <path class="cls-1" d="M197.32,181.34a188.4,188.4,0,0,0-32.52-3.74c-32.83-.85-49.65,8.74-90.64,9.38-6.73.1-12.16-.06-15.24-.18a12.39,12.39,0,0,1,.11-3.53A12.63,12.63,0,0,1,60.11,180L58,181.44l.15-4.22L45,187.13a80.59,80.59,0,0,1-.41-14.87,78.93,78.93,0,0,1,2-13.48C58.41,108.37,54.12,76,54.12,76a115.65,115.65,0,0,0-7.41-28.9l17.85,3.79L77,59.75l10.26-6.24A82.89,82.89,0,0,1,98.4,48.74c27.6-9.53,43.3,1.56,81.46-.64,19.38-1.12,21.87-4.39,25.5-1,14.14,13,1.49,76.86-8.14,83.12-1.67,1.09-3.29,2.27-5,3.36-5.36,3.44-7,4-7,5.26-.07,2.15,4.41,2.5,6.32,6.47a10.24,10.24,0,0,1,.37,6.73C191,156.38,191.59,164.59,197.32,181.34Z"/>
    <path class="cls-2" d="M185.5,68.5l-11,7.81,7.82,11a1.27,1.27,0,0,1-.09,1.31,1.35,1.35,0,0,1-1.85.06l-7.81-11-11,7.8a1.22,1.22,0,0,1-1.46-.24,1.23,1.23,0,0,1,.09-1.69l11-7.81-7.81-11a1.19,1.19,0,0,1,1.94-1.37l7.8,11,11-7.81a1.23,1.23,0,0,1,1.3.09A1.33,1.33,0,0,1,185.5,68.5Z"/>
    <rect class="cls-3" x="122.26" y="80.02" width="8.77" height="1.97" transform="translate(-23.46 89.4) rotate(-35.81)"/>
    <rect class="cls-3" x="134.03" y="75.02" width="8.77" height="1.97"/>
    <rect class="cls-3" x="120.44" y="102.74" width="8.77" height="1.97" transform="translate(105.65 264.88) rotate(-122.94)"/>
    <rect class="cls-3" x="116.02" y="90.73" width="8.77" height="1.97" transform="translate(22.79 207.4) rotate(-87.14)"/>
    <rect class="cls-3" x="124.7" y="114.71" width="8.77" height="1.97" transform="translate(242.67 -15.25) rotate(89.07)"/>
    <rect class="cls-3" x="122.08" y="127.23" width="8.77" height="1.97" transform="translate(303.96 97.77) rotate(124.87)"/>
    <rect class="cls-3" x="111.61" y="132.92" width="8.77" height="1.97" transform="translate(236.28 263.96) rotate(178.14)"/>
    <rect class="cls-3" x="78.3" y="138.18" width="8.77" height="1.97" transform="matrix(0.84, 0.54, -0.54, 0.84, 89.16, -22.58)"/>
    <rect class="cls-3" x="87.22" y="147.35" width="8.77" height="1.97" transform="translate(196.81 9.32) rotate(68.82)"/>
    <rect class="cls-3" x="86.09" y="159.21" width="8.77" height="1.97" transform="translate(274.25 168.61) rotate(122.08)"/>
    <rect class="cls-3" x="86.37" y="181.44" width="8.77" height="1.97" transform="translate(37.94 379.22) rotate(-138.53)"/>
    <rect class="cls-3" x="81.92" y="170.39" width="8.77" height="1.97" transform="translate(-91.61 243.25) rotate(-85.27)"/>
    <rect class="cls-3" x="99.05" y="130.5" width="8.77" height="1.97" transform="translate(115.83 298.32) rotate(-146.06)"/>
    <rect class="cls-3" x="67.37" y="131.89" width="8.77" height="1.97" transform="translate(57.08 283.17) rotate(-146.06)"/>
    <rect class="cls-3" x="88.87" y="122.36" width="8.77" height="1.97" transform="translate(74.05 276.78) rotate(-135.78)"/>
    <rect class="cls-3" x="81.9" y="111.63" width="8.77" height="1.97" transform="translate(-9.69 217.1) rotate(-99.97)"/>
    <rect class="cls-3" x="73.11" y="88.05" width="8.77" height="1.97" transform="translate(82.14 -28.91) rotate(43.29)"/>
    <rect class="cls-3" x="62.63" y="89.76" width="8.77" height="1.97" transform="translate(-43.14 66.42) rotate(-41.1)"/>
    <rect class="cls-3" x="60.51" y="100.49" width="8.77" height="1.97" transform="translate(4.58 205.73) rotate(-117.35)"/>
    <rect class="cls-3" x="61.61" y="110.65" width="8.77" height="1.97" transform="translate(-57.13 70.9) rotate(-41.1)"/>
    <rect class="cls-3" x="59.49" y="121.38" width="8.77" height="1.97" transform="translate(-15.47 235.31) rotate(-117.35)"/>
    <rect class="cls-3" x="80.25" y="98.66" width="8.77" height="1.97" transform="translate(166.47 -2.31) rotate(79.1)"/>
    <rect class="cls-3" x="149.4" y="75.02" width="8.77" height="1.97"/>
  </g>
</svg>
