<svg id="Layer_1" data-name="Layer 1" xmlns="http://www.w3.org/2000/svg" width="86mm" height="86mm" viewBox="0 0 243.78 243.78">
  <defs>
    <style>
      .cls-1 {
        fill: none;
        stroke-width: 2px;
      }

      .cls-1, .cls-2 {
        stroke: #fff;
        stroke-miterlimit: 10;
      }

      .cls-2 {
        fill: #fff;
      }
    </style>
  </defs>
  <g>
    <path class="cls-1" d="M120.53,48.22l-.79-1.6-2.37-4.85L115,46.62l0-.07,0,0-.31-.61-.5-1L105.6,28a2.59,2.59,0,0,1,.75-3.55A2.61,2.61,0,0,1,109.67,26l.06.13q2.55,5.19,5.09,10.36c.85,1.73,1.69,3.46,2.55,5.2l.49,1c.12.23.23.45.34.68,0,0,0,0,0,0a.51.51,0,0,0,.07.15L119.5,46l.12.23.16.34c.08.17.17.34.26.52v0l.14.28.23.47c0,.1.06.2.09.3A.64.64,0,0,1,120.53,48.22Z"/>
    <path class="cls-1" d="M129.14,28l-8.54,17-.5,1-.3.61,0,0,0,.07-2.37-4.85L115,46.62l-.79,1.6a.64.64,0,0,1,0-.07c0-.1,0-.2.09-.3l.23-.47a2.44,2.44,0,0,1,.14-.28v0l.26-.52.16-.34.12-.23c.4-.83.81-1.66,1.22-2.49l.07-.15s0,0,0,0l.34-.68.49-1,2.55-5.2q2.55-5.17,5.08-10.36a.83.83,0,0,0,.07-.13,2.61,2.61,0,0,1,3.32-1.51A2.59,2.59,0,0,1,129.14,28Z"/>
    <polygon class="cls-1" points="198.36 207.16 141.24 207.16 117.37 158.42 93.5 207.16 36.38 207.16 114.21 48.22 115 46.62 117.37 41.77 119.74 46.62 120.53 48.22 198.36 207.16"/>
    <path class="cls-2" d="M169.86,45.63c-.59.6-1.77,1.87-3.52,3.82-.6.64-1.19,1.27-1.77,1.91a19.71,19.71,0,0,0-1.61,2l5-.34-.45,4a85.2,85.2,0,0,0-9.16.66l0-3.92c.59-.7,1.77-2,3.54-3.89l3.67-3.93c-1.21.1-2.52.27-3.92.49l.15-4,8.59-.68C170.28,42.54,170.1,43.86,169.86,45.63Z"/>
    <path class="cls-2" d="M153.23,71q-.78.78-3.08,3.34c-.52.55-1,1.11-1.54,1.67a16.9,16.9,0,0,0-1.42,1.7l4.38-.29-.39,3.47a72.31,72.31,0,0,0-8,.57l0-3.43q.78-.92,3.1-3.4l3.21-3.43c-1.07.09-2.21.23-3.44.43l.13-3.51,7.52-.59C153.6,68.27,153.44,69.43,153.23,71Z"/>
  </g>
</svg>
