<svg id="helt_1" data-name="helt 1" xmlns="http://www.w3.org/2000/svg" width="198.43mm" height="185.77mm" viewBox="0 0 562.47 526.59">
  <defs>
    <style>
      .cls-1, .cls-6 {
        fill: #1d1d1b;
      }

      .cls-1 {
        stroke: #fff;
        stroke-width: 0.72px;
      }

      .cls-1, .cls-2, .cls-3, .cls-4, .cls-5, .cls-6, .cls-8 {
        stroke-miterlimit: 10;
      }

      .cls-2 {
        fill: #f39132;
      }

      .cls-2, .cls-3, .cls-4, .cls-5, .cls-6, .cls-8 {
        stroke: #1d1d1b;
      }

      .cls-3, .cls-4 {
        fill: #bc936f;
      }

      .cls-4 {
        stroke-width: 1.29px;
      }

      .cls-5, .cls-8 {
        fill: none;
      }

      .cls-7 {
        fill: #294797;
      }

      .cls-8 {
        stroke-width: 2.04px;
      }

      .cls-9 {
        fill: #fff;
      }
    </style>
  </defs>
  <g>
    <path class="cls-1" d="M159.75,241c-14.07-8.57-18.2-23.14-19.11-26.74-2.21-.21-27.59-3.05-40.36-26.12-11.18-20.19-4-40.16-2.92-43a59.1,59.1,0,0,1,53.47-90c7.78-28,31.65-47.86,58.58-49.38,32.7-1.84,53.1,24.24,54.77,26.46C284.48,13.48,313.09,7.52,338,16.81c32.27,12,42.22,43.48,43.31,47.12,2,.36,34.59,6.84,45.84,35.66,9.94,25.43-1.11,57.19-28,73.86a88.85,88.85,0,0,1-26.74,43.3c-5.06,4.47-25.28,22.32-52.21,21.62-24.84-.65-30.71-16.44-54.77-19.07-13.48-1.47-32.34,1.22-56.49,18.95C193.56,248.72,174.26,249.79,159.75,241Z"/>
    <path class="cls-2" d="M338.52,297.1h0a21.65,21.65,0,0,1-.74,16.26C333,323.38,322,325,321.15,325.11c-1,.7-5.07,3.54-6.49,8.21a14.5,14.5,0,0,0-.62,4.19,14.34,14.34,0,0,0,6.89,12.26c-.18.32-.33.62-.49.9-1.86,3.46-4.46,8.29-7.82,13.69-7.19,11.53-17.85,25.68-32.28,34.72h0a57.06,57.06,0,0,1-28.11,9.05,56.48,56.48,0,0,1-29.16-6.88c-16-8.48-28.18-23.16-36-34.95h0a150.71,150.71,0,0,1-8-13.47h.12a14.36,14.36,0,0,0,8.1-26.22c-1.6-.39-13.72-3.48-19.67-15.76-5.77-11.89-1.16-23-.47-24.55a68.25,68.25,0,0,1,13.28-32.57c34.77-45.1,125-38,150.82,6C338.08,271.41,339.65,284.5,338.52,297.1Z"/>
    <path class="cls-3" d="M342.76,337.51a14.37,14.37,0,1,1-14.36-14.36,14.13,14.13,0,0,1,4.13.6A14.36,14.36,0,0,1,342.76,337.51Z"/>
    <path class="cls-2" d="M363.5,317.8c-.53,16.33-16,33.29-27.29,31.76a14.36,14.36,0,0,0-3.68-25.81,14.43,14.43,0,0,0-11.38,1.36,9.2,9.2,0,0,1,1.14-4.43c2.76-4.86,8.31-2.87,11.69-7.31,1.27-1.66.49-1.93,3.59-13,.39-1.39.72-2.53.95-3.28h0c1.36-6,.53-10,3.08-10.72C347.14,284.77,364.05,300.16,363.5,317.8Z"/>
    <path class="cls-2" d="M143.62,318.69c.53,16.33,16,33.28,27.29,31.76A14.36,14.36,0,0,1,178.72,324a14.14,14.14,0,0,1,7.25,2,9.15,9.15,0,0,0-1.14-4.43c-2.76-4.86-8.31-2.87-11.69-7.31-1.27-1.66-.48-1.94-3.59-13-.39-1.39-.72-2.53-1-3.28h0c-1.36-6-.53-10-3.08-10.72C160,285.66,143.07,301.05,143.62,318.69Z"/>
    <path class="cls-3" d="M193.52,338.45a14.36,14.36,0,0,1-14.36,14.37H179a14.36,14.36,0,1,1,14.48-14.37Z"/>
    <path class="cls-4" d="M358.58,166.51a10.87,10.87,0,0,1-10.87,10.87,10.64,10.64,0,0,1-2.84-.38,1.42,1.42,0,0,1,0,.2c-1.1,4.7-3.74,16-9.17,24.85-18,29.47-65.21,30.23-78.85,30.45-9.21.14-66.12,1.06-83.31-30.74-3.72-6.89-5.44-15.07-7.19-23.36-.11-.5-.21-1-.31-1.5a11,11,0,0,1-3.21.48,10.87,10.87,0,0,1,0-21.73H163c-.73-11,.33-17.32.88-19.78a47.71,47.71,0,0,1,3.34-10.78c8.14-16.84,30.75-21.45,32-21.68,11.95-2.27,16.21,1.58,24.67-2.87A30.4,30.4,0,0,0,236.05,88a54.47,54.47,0,0,0,35.61,3.1,30.9,30.9,0,0,0,14.23,8.86,31.34,31.34,0,0,0,20.93-1.5C308.36,99,335,109.32,343,126.28a59.31,59.31,0,0,1,3.59,10.19,112.5,112.5,0,0,1,1,19.18h.06A10.87,10.87,0,0,1,358.58,166.51Z"/>
    <path class="cls-5" d="M258.28,167.71a5.93,5.93,0,0,1,2.84,4.54,5.59,5.59,0,0,1-2.84,5.13"/>
    <path class="cls-5" d="M248.39,167.72a5.88,5.88,0,0,0-2.85,4.54,5.6,5.6,0,0,0,2.85,5.13"/>
    <path class="cls-6" d="M262.42,430.68a75.79,75.79,0,0,0,6.07,21.79c14.14,30.53,47,41,55.86,43.47-13-15.53-17.07-33-10.26-43.42a20.33,20.33,0,0,1,7.69-6.79s4-19.1,2-35.28c-1.34-11.08-3.59-27.59-16.66-38.17-1.53-1.24-15.49-12.25-27.69-7.53C261.29,371.76,259.1,408.88,262.42,430.68Z"/>
    <path class="cls-7" d="M268.28,452.23q5,18.15,10,36.3L338,498.6a58.25,58.25,0,0,1-16.5-30.26,56.83,56.83,0,0,1,.29-22.85l-19.65-24.93Z"/>
    <path class="cls-6" d="M235.76,430.24A75.47,75.47,0,0,1,229.69,452c-14.14,30.53-47,41-55.85,43.47,13-15.53,17.07-33,10.25-43.42a20.28,20.28,0,0,0-7.68-6.79s-4-19.1-2-35.28c1.35-11.08,3.6-27.59,16.66-38.17,1.53-1.24,15.49-12.25,27.69-7.53C236.9,371.32,239.09,408.44,235.76,430.24Z"/>
    <path class="cls-7" d="M229.91,451.79q-5,18.15-10,36.3l-59.69,10.07a58.31,58.31,0,0,0,16.51-30.26,56.83,56.83,0,0,0-.29-22.85l19.64-24.93Z"/>
    <g id="maske">
      <line class="cls-8" x1="268.19" y1="286.77" x2="268.17" y2="286.91"/>
      <path class="cls-7" d="M359.39,137.12c-2.35,15-14.72,23.5-17.35,25.31-26,17.83-69.3,6.87-80.27-.11-1.07-.68-3.52-.66-6.14-1.29-2.74.72-5.37.67-6.49,1.38-11,7-54.31,17.93-80.27.11-2.63-1.81-15-10.31-17.35-25.32-1.68-10.68,2-22.8,10.41-30.26,17-15.07,53.66-11.39,67.68,4.4,2.67,3,13.69,16.78,22,19a11.24,11.24,0,0,0,2.39.34h0c1.59-.24,3.12.16,5.35-.43,8.28-2.22,19.3-16,22-19,14-15.8,50.68-19.47,67.68-4.4C357.39,114.31,361.07,126.44,359.39,137.12Z"/>
      <ellipse class="cls-9" cx="202.79" cy="140.8" rx="8.43" ry="12.82"/>
      <ellipse class="cls-9" cx="307.87" cy="140.8" rx="8.43" ry="12.82"/>
    </g>
    <path class="cls-7" d="M253.21,269.78A35.24,35.24,0,1,0,288.45,305,35.24,35.24,0,0,0,253.21,269.78Zm0,57.34a22.1,22.1,0,1,1,22.1-22.1A22.1,22.1,0,0,1,253.21,327.12Z"/>
  </g>
</svg>
